<svg width="24" height="56" viewBox="0 0 24 56" fill="none" xmlns="http://www.w3.org/2000/svg">
<g id="non-perishable-food.svg" clip-path="url(#clip0_397_1304)">
<g id="Clip path group">
<mask id="mask0_397_1304" style="mask-type:luminance" maskUnits="userSpaceOnUse" x="0" y="0" width="24" height="56">
<g id="clip0_270_569">
<path id="Vector" d="M24 0H0V56H24V0Z" fill="white"/>
</g>
</mask>
<g mask="url(#mask0_397_1304)">
<g id="Group">
<path id="Vector_2" d="M0.540548 51.1556C1.41528 53.507 3.13258 55.801 4.42158 55.9267C5.08779 55.9909 6.0199 55.8721 6.0199 55.8721C6.0199 55.8721 6.25644 55.5605 6.66371 55.2818C6.98701 55.0619 7.42088 54.8623 7.93034 54.8541C9.27253 54.835 9.42929 55.9117 10.6147 55.9772C10.9996 55.9978 12.8555 56.0046 13.2389 55.9868C14.423 55.9308 14.5881 54.8541 15.9303 54.8842C17.0864 54.9102 17.8337 55.9157 17.8337 55.9157C17.8337 55.9157 18.7672 56.0414 19.432 55.9813C20.7211 55.8652 22.458 53.5849 23.3509 51.2389C24.2438 48.8945 23.8702 44.1479 23.7246 43.7654C23.579 43.3828 23.1844 43.4757 22.9408 43.1875C22.7589 42.973 22.896 42.5945 23.0416 42.3731C23.0416 42.3731 23.6868 42.2679 23.8604 41.7077C23.8911 41.6148 23.9037 41.5138 23.9037 41.4167C23.9065 40.6025 24.0535 22.7273 23.9793 22.0086C23.9709 21.9226 23.9527 21.8474 23.9276 21.7804C23.7526 21.29 23.2236 21.2886 23.2236 21.2886L23.2278 20.1382C23.2278 20.1382 23.8183 19.9004 23.9681 19.2788C23.9751 19.2515 23.9793 19.2228 23.9836 19.1886C24.0675 18.4618 23.4951 16.3303 22.563 14.7673C21.5875 13.1346 16.8933 8.61218 16.8933 8.61218L16.9171 2.52674L7.36211 2.49121L7.33831 8.57666C7.33831 8.57666 2.60493 13.0649 1.61683 14.6908C0.796671 16.042 0.243837 17.8223 0.164061 18.7459C0.147267 18.9331 0.151464 19.0861 0.175257 19.1914C0.243837 19.4892 0.413187 19.6982 0.572739 19.8375C0.746286 19.9906 0.908638 20.0562 0.908638 20.0562L0.904439 21.2066C0.904439 21.2066 0.375398 21.2052 0.196252 21.6943C0.0632912 22.0442 0.119275 21.9171 0.06749 41.3061C0.06749 41.4154 0.0744879 41.5083 0.108078 41.623C0.276028 42.1846 0.919835 42.2939 0.919835 42.2939C1.06399 42.518 1.19835 42.8964 1.01501 43.1082C0.768679 43.3951 0.375398 43.2981 0.227043 43.6806C0.0786866 44.0633 -0.332789 48.807 0.541948 51.157L0.540548 51.1556Z" fill="#D6E0F3"/>
<path id="Vector_3" d="M11.9314 55.2275C12.6214 55.2303 13.0749 55.2248 13.2036 55.2193C13.5101 55.2042 13.6878 55.069 13.9818 54.8435C14.3849 54.5347 14.9377 54.1112 15.8894 54.1153H15.951C17.0161 54.1399 17.7956 54.7561 18.1651 55.1209C18.2085 55.1647 18.2673 55.1906 18.3289 55.1961C18.7432 55.2316 19.1113 55.2397 19.3604 55.2179C19.8642 55.1728 20.6074 54.3995 21.135 53.6917C21.2204 53.577 21.1953 53.4171 21.0777 53.3338C20.9601 53.2505 20.7964 53.2751 20.7109 53.3898C19.9986 54.3449 19.4528 54.6946 19.3128 54.7069C19.1155 54.7247 18.8104 54.7192 18.4689 54.6932C18.0196 54.2697 17.1476 53.6316 15.9608 53.6043H15.8937C14.7557 53.5988 14.0672 54.1263 13.6571 54.4419C13.359 54.67 13.3002 54.7028 13.1785 54.7083C13.0553 54.7138 12.5753 54.7178 11.9329 54.7164C11.289 54.7138 10.8118 54.7056 10.6886 54.7001C10.564 54.6932 10.5066 54.6604 10.2085 54.4296C9.79986 54.1112 9.11686 53.5797 7.98041 53.5756H7.91323C6.72498 53.5933 5.84884 54.226 5.39538 54.6468C5.05249 54.6714 4.74877 54.6728 4.55143 54.6537C4.20154 54.6195 2.70259 53.2149 1.77606 50.7215C1.14346 49.0218 1.29741 45.5952 1.43457 44.3928C1.6669 44.2712 1.86004 44.1209 2.01959 43.9338C2.6578 43.1932 2.42407 42.2191 2.02939 41.6097C1.85444 41.3392 1.6403 41.1643 1.37998 41.0809C1.37998 40.8145 1.37998 40.3719 1.37998 39.7953C1.38558 29.7229 1.40378 23.8698 1.43737 22.3805C1.90343 22.1784 2.21554 21.7234 2.21693 21.2138L2.22114 20.0634C2.22253 19.5619 1.92862 19.1097 1.46537 18.8979C1.48775 18.4333 1.90622 16.7268 2.74458 15.3483C3.48215 14.1351 6.96851 10.7152 8.24913 9.49921C8.50105 9.26012 8.64521 8.92674 8.64661 8.58517L8.6662 3.52445C8.6662 3.38236 8.55004 3.26758 8.40447 3.26758C8.25892 3.26758 8.14135 3.38098 8.14135 3.52308L8.12177 8.58381C8.12177 8.78874 8.03359 8.98959 7.88244 9.13305C6.58782 10.3613 3.05948 13.8263 2.29251 15.0873C1.40378 16.5479 0.905528 18.4785 0.940518 18.9991C0.941917 19.0223 0.946116 19.0441 0.954513 19.0659C1.0077 19.2149 1.14765 19.3215 1.20364 19.346C1.50734 19.4704 1.69629 19.7505 1.69489 20.062L1.69069 21.2124C1.69069 21.558 1.44996 21.8613 1.10987 21.9515C0.997901 21.9816 0.919524 22.0786 0.916725 22.1907C0.880336 23.3425 0.859342 29.2653 0.855143 39.7939C0.855143 40.5632 0.855143 41.0932 0.855143 41.2845C0.855143 41.3952 0.926521 41.4922 1.03429 41.5277C1.05108 41.5332 1.07068 41.5372 1.08887 41.54C1.30021 41.5647 1.44437 41.6643 1.58572 41.8829C1.88523 42.3461 2.07418 43.0744 1.61791 43.6031C1.47935 43.7657 1.30441 43.8914 1.08327 43.9898C1.0007 44.0266 0.943317 44.1018 0.93072 44.1906C0.779566 45.3233 0.583624 49.0149 1.28341 50.8949C2.21554 53.3994 3.81106 55.0963 4.50105 55.1633C4.75018 55.1879 5.11547 55.1824 5.53254 55.1496C5.59412 55.1441 5.65291 55.1181 5.69629 55.0759C6.06998 54.7138 6.85374 54.1044 7.92022 54.088H7.98181C8.93212 54.0907 9.48076 54.5184 9.88103 54.8299C10.1735 55.058 10.3499 55.1947 10.6592 55.2111C10.7922 55.2179 11.2708 55.2261 11.93 55.2289L11.9314 55.2275Z" fill="#C1D0EC"/>
<path id="Vector_4" d="M22.3648 51.1403C22.4712 51.1403 22.5718 51.0775 22.6124 50.9736C23.3262 49.0991 23.1597 45.4047 23.017 44.272C23.0058 44.1846 22.9498 44.108 22.8672 44.0698C22.646 43.9701 22.4712 43.8402 22.3325 43.6763C21.8833 43.1462 22.0764 42.4207 22.3787 41.9602C22.5201 41.7443 22.6698 41.6433 22.8797 41.62C22.9036 41.6174 22.9288 41.6119 22.9512 41.6023C23.0491 41.5626 23.1149 41.4697 23.1163 41.3659L23.1275 39.8753C23.2045 29.3863 23.2297 23.4662 23.203 22.2802C23.2003 22.1655 23.1192 22.0657 23.0043 22.037C22.877 22.0056 22.7594 21.94 22.6545 21.8417C22.5117 21.7064 22.4347 21.5097 22.4347 21.287L22.4389 20.1366C22.4389 19.9344 22.5005 19.5736 22.8965 19.4384C22.9133 19.4329 22.9301 19.4247 22.9456 19.4166C23.0141 19.3755 23.1373 19.2867 23.1877 19.1447C23.1947 19.1227 23.2003 19.1009 23.2017 19.0791C23.2409 18.5585 22.758 16.6251 21.8805 15.1565C21.1233 13.8899 17.6229 10.399 16.3381 9.16118C16.1884 9.01634 16.103 8.81549 16.103 8.61056L16.1226 3.54983C16.1226 3.40773 16.0065 3.29297 15.8609 3.29297C15.7154 3.29297 15.5978 3.40636 15.5978 3.54847L15.5781 8.60919C15.5781 8.95212 15.7195 9.28551 15.9686 9.52596C17.2395 10.7515 20.6993 14.1973 21.427 15.4146C22.2528 16.7974 22.6572 18.5011 22.6782 18.9711C22.201 19.1542 21.9155 19.5846 21.914 20.1352L21.9099 21.2856C21.9085 21.649 22.0428 21.9783 22.2891 22.2106C22.4081 22.3226 22.5382 22.4101 22.681 22.4702C22.702 23.9881 22.6754 29.8371 22.6012 39.8726L22.5915 41.1583C22.3298 41.2402 22.1128 41.4137 21.9364 41.6842C21.5389 42.2909 21.2982 43.2609 21.9281 44.0029C22.0876 44.1928 22.2794 44.3458 22.5131 44.4702C22.6419 45.6725 22.7678 49.1005 22.1212 50.796C22.0708 50.9286 22.1394 51.0761 22.2752 51.1253C22.3045 51.1362 22.3354 51.1417 22.3661 51.1417L22.3648 51.1403Z" fill="white"/>
<path id="Vector_5" d="M0.0790024 30.2014C0.0692053 35.1965 0.0678058 40.7027 0.0664062 41.3052V41.3311C0.0664062 41.4405 0.0818016 41.5361 0.106994 41.6222L23.8592 41.711C23.8858 41.629 23.9013 41.5361 23.9026 41.4323V41.4213C23.9055 40.607 24.0524 22.7319 23.9782 22.0132C23.9698 21.9271 23.9517 21.8521 23.9264 21.7851L0.195168 21.6963C0.169976 21.7633 0.15178 21.8383 0.141984 21.9244C0.106994 22.2483 0.0887995 26.0492 0.0776028 30.2042L0.0790024 30.2014Z" fill="#AB815E"/>
<path id="Vector_6" opacity="0.09" d="M0.227042 43.6795C0.375398 43.2969 0.76728 43.3939 1.01501 43.107C1.19555 42.8966 1.06679 42.525 0.919834 42.2928C0.919834 42.2928 0.0646912 42.1465 0.0674904 41.3308C0.0702895 40.5165 0.0646912 22.6414 0.143068 21.9227C0.221445 21.2054 0.904439 21.2082 0.904439 21.2082L0.908638 20.0578C0.908638 20.0578 0.747686 19.9908 0.572738 19.8392C0.220045 19.5044 0.120674 19.2312 0.162662 18.7475C0.242438 17.8266 0.792473 16.0436 1.61543 14.6923C2.60353 13.0665 7.33411 8.57958 7.33411 8.57958L7.35791 2.49414L9.18435 2.50096C9.12278 4.33726 9.02901 6.17217 8.95623 8.00847C8.92123 8.846 8.88624 9.6931 8.65392 10.4978C8.02551 12.6606 6.3796 13.7646 5.50346 17.3347C5.33271 18.0342 5.26134 18.5644 5.40969 19.2161C10.3656 19.4989 18.833 19.6424 23.9807 19.1915C23.9766 19.2243 23.9723 19.2544 23.9654 19.2817C23.8155 19.9048 23.2249 20.1411 23.2249 20.1411V20.2832C18.1458 20.6452 10.4384 20.5155 5.70779 20.26C6.16266 21.8913 5.3719 22.0757 4.85406 22.7945C4.42298 23.386 4.3852 24.1608 4.3656 24.8862C4.23544 29.6491 4.27882 34.4161 4.49437 39.1734C4.51256 39.582 4.53355 39.9987 4.6749 40.3853C4.85545 40.88 5.21935 41.2844 5.51886 41.7229C12.4832 42.0946 19.1465 41.8582 23.9023 41.4306C23.8911 42.2353 23.0416 42.3747 23.0416 42.3747C23.0416 42.3747 22.9982 42.4417 22.9534 42.5386C17.8184 42.9485 11.8366 43.0605 5.96112 42.7723C5.99751 43.0592 5.95692 43.3434 5.79318 43.5852C5.61682 43.8448 5.32851 44.0074 5.08218 44.2068C3.94713 45.1264 3.76798 46.7564 3.91494 48.1868C4.10808 50.0709 4.7211 51.9128 5.69661 53.5482C6.0297 54.1043 6.41319 54.6849 6.66511 55.282C6.25643 55.5594 6.0213 55.8722 6.0213 55.8722C6.0213 55.8722 5.08778 55.991 4.42298 55.9269C3.13537 55.8012 1.41669 53.5085 0.541947 51.1558C-0.33279 48.8044 0.0786869 44.062 0.227042 43.6795Z" fill="black"/>
<path id="Vector_7" d="M7.24855 4.92473C7.35631 4.93976 7.51587 4.9507 7.716 4.96026C7.86996 4.96708 8.04631 4.97256 8.24085 4.97802C8.57955 4.98759 8.96863 4.99442 9.37451 4.99715C9.54806 4.99988 9.7244 5.00125 9.89935 5.00262C10.287 5.00535 10.6747 5.00671 11.033 5.00808L15.7315 5.02584C15.828 5.02584 15.9217 5.02721 16.01 5.0313C16.2072 5.03814 16.3808 5.04907 16.5348 5.05316C16.658 5.05727 16.7685 5.05727 16.8679 5.04906C17.0806 5.0313 17.2457 4.97256 17.3815 4.82499C17.3815 4.82499 17.4711 2.15664 17.3941 1.54045C17.3172 0.922882 17.2415 0.170058 16.0645 0.0976445C16.0239 0.0949119 15.9777 0.0921794 15.926 0.0908131C14.6551 0.033429 9.93574 0.00746953 8.62713 0.00200439H8.28983C8.28983 0.00200439 7.26115 -0.0622112 6.99382 0.824509C6.97563 0.885992 6.96023 0.95294 6.94903 1.02262C6.78669 2.11702 6.85667 4.58179 6.85667 4.58179C6.85667 4.58179 6.69991 4.85505 7.24855 4.9261V4.92473Z" fill="#AB815E"/>
<path id="Vector_8" d="M16.0243 1.88343L16.0117 5.03136C16.209 5.03819 16.3826 5.04912 16.5365 5.05322L16.5491 1.8848C16.5491 1.74271 16.433 1.62793 16.2874 1.62793C16.1433 1.62793 16.0243 1.74134 16.0243 1.88343Z" fill="#8E5525"/>
<path id="Vector_9" d="M14.3641 1.87717L14.3516 5.021H14.8764L14.889 1.8799C14.889 1.73781 14.7714 1.62305 14.6272 1.62305C14.4831 1.62305 14.3641 1.73645 14.3641 1.87854V1.87717Z" fill="#8E5525"/>
<path id="Vector_10" d="M12.7079 1.87131L12.6953 5.01514H13.2202L13.2328 1.87404C13.2328 1.73195 13.1152 1.61719 12.9711 1.61719C12.8255 1.61719 12.7079 1.73058 12.7079 1.87268V1.87131Z" fill="#8E5525"/>
<path id="Vector_11" d="M11.0478 1.86448L11.0352 5.00831H11.56L11.5726 1.86721C11.5726 1.72512 11.4564 1.61035 11.3109 1.61035C11.1667 1.61035 11.0478 1.72375 11.0478 1.86585V1.86448Z" fill="#8E5525"/>
<path id="Vector_12" d="M9.3876 1.85901L9.375 4.99738C9.54855 5.00011 9.7249 5.00147 9.89985 5.00284L9.91244 1.86037C9.91244 1.71828 9.79487 1.60352 9.65071 1.60352C9.50516 1.60352 9.3876 1.71692 9.3876 1.85901Z" fill="#8E5525"/>
<path id="Vector_13" d="M7.73134 1.85276L7.71875 4.96106C7.8727 4.96789 8.04905 4.97335 8.2436 4.97883L8.25619 1.85549C8.25619 1.7134 8.13862 1.59863 7.99446 1.59863C7.84891 1.59863 7.73134 1.71203 7.73134 1.85412V1.85276Z" fill="#8E5525"/>
<path id="Vector_14" opacity="0.24" d="M7.73438 0.331228C7.73438 0.63591 9.69379 0.890039 12.1136 0.898237C14.5335 0.907802 16.4958 0.668701 16.4972 0.362653C16.4972 0.264281 16.29 0.171373 15.9276 0.0893955C14.6553 0.0333777 9.93592 0.00741827 8.62731 0.00195312C8.06748 0.0934944 7.73438 0.206897 7.73438 0.332595V0.331228Z" fill="white"/>
<path id="Vector_15" d="M7.20396 6.52405L17.0373 6.56092C17.2847 6.56184 17.486 6.36685 17.4869 6.12538L17.488 5.86442C17.4889 5.62296 17.2891 5.42646 17.0418 5.42553L7.20842 5.38868C6.96107 5.38775 6.75979 5.58274 6.75884 5.82421L6.75782 6.08517C6.75687 6.32663 6.95662 6.52312 7.20396 6.52405Z" fill="#B4C6E8"/>
</g>
</g>
</g>
</g>
<defs>
<clipPath id="clip0_397_1304">
<rect width="24" height="56" fill="white"/>
</clipPath>
</defs>
</svg>
