<svg width="31" height="46" viewBox="0 0 31 46" fill="none" xmlns="http://www.w3.org/2000/svg">
<path d="M27.7615 29.371C27.3094 26.5637 24.9165 24.5265 22.0746 24.5265C21.9587 24.5265 21.8502 24.5498 21.7356 24.5565C21.6376 24.2935 21.4976 24.0434 21.2745 23.8416L15.9644 19.0115L13.546 14.5053L14.2496 15.2609L14.4334 14.2837C14.81 12.285 13.4962 10.3592 11.4982 9.98098L9.95055 9.6887C7.96001 9.31202 6.02826 10.6184 5.64713 12.6248L3.09467 26.1568C3.01026 26.5985 3.00562 27.0512 3.07949 27.4942L4.21562 34.3436L0.906699 43.0222C0.474133 44.1545 1.04225 45.4234 2.17549 45.8551C3.2979 46.2845 4.57423 45.7285 5.00824 44.5863L8.52813 35.357C8.66533 34.9969 8.70603 34.6058 8.64415 34.2247L8.20869 31.5297L11.2494 35.1332L11.1426 43.7773C11.1275 44.9895 12.0994 45.9847 13.311 45.9991C13.3199 45.9999 13.3291 45.9999 13.338 45.9999C13.7088 45.9999 14.0522 45.8997 14.3596 45.7369C14.5103 45.856 14.6791 45.9524 14.8824 45.9847C15.5018 46.0873 16.1061 45.6578 16.2085 45.0264L17.429 37.4492H26.7186L27.9392 45.0264C28.0311 45.5952 28.5224 45.9998 29.0799 45.9998C29.1416 45.9998 29.2035 45.9953 29.2652 45.9846C29.8966 45.8837 30.3261 45.2893 30.2236 44.6587L27.7615 29.371ZM16.3863 29.3717L15.6149 34.1627C15.5757 33.7114 15.4266 33.2759 15.1312 32.9271L11.685 28.8422L12.788 22.9971L12.3104 22.5624L11.9547 22.24C11.789 22.0885 11.6805 21.8971 11.6324 21.6938L10.3214 16.2366L12.889 21.0188C12.9885 21.2025 13.1166 21.3674 13.2702 21.5069L18.2217 26.01C17.2755 26.8629 16.6033 28.0246 16.3863 29.3717ZM17.8012 35.1346L18.6707 29.7401C18.942 28.0599 20.3733 26.841 22.0745 26.841C23.7743 26.841 25.2058 28.0599 25.477 29.7394L26.3465 35.1347H17.8012V35.1346Z" fill="#DC366E"/>
<path d="M13.7051 8.48029C16.0272 8.9203 18.2649 7.39318 18.7019 5.07188C19.1404 2.75136 17.6139 0.513698 15.2934 0.0744613C12.9729 -0.361778 10.7337 1.16322 10.2937 3.48519C9.85527 5.80726 11.3846 8.04183 13.7051 8.48029Z" fill="#DC366E"/>
</svg>
