<svg width="56" height="36" viewBox="0 0 56 36" fill="none" xmlns="http://www.w3.org/2000/svg">
<g id="technological-devices.svg" clip-path="url(#clip0_397_1160)">
<path id="Vector" d="M56 0.838867H0V32.7428H56V0.838867Z" fill="#E0E5EF"/>
<path id="Vector_2" d="M32.1847 5.74219V27.6925C32.1847 27.6925 31.8746 28.0058 32.1847 28.0058C36.3692 24.993 36.2355 8.48011 32.1847 5.74219Z" fill="#BBC6DC"/>
<path id="Vector_3" d="M32.1853 27.6919H2.78906V6.18555H32.1853C32.1853 6.18555 34.8339 9.43998 34.8339 17.0425C34.8339 24.6449 32.1853 27.6919 32.1853 27.6919Z" fill="#345397"/>
<path id="Vector_4" d="M2.78898 6.18555H2.47461V27.6919H2.78898V6.18555Z" fill="white"/>
<path id="Vector_5" d="M37.6174 0.838867H37.0605V32.7428H37.6174V0.838867Z" fill="white"/>
<path id="Vector_6" d="M56.0001 0.838867H55.4434V32.7428H56.0001V0.838867Z" fill="white"/>
<path id="Vector_7" d="M38.6936 0.838867H38.1367V32.7428H38.6936V0.838867Z" fill="#BBC6DC"/>
<path id="Vector_8" d="M0.556779 0.838867H0V32.7428H0.556779V0.838867Z" fill="#BBC6DC"/>
<path id="Vector_9" d="M30.2671 25.5776H4.73242V8.50977H30.2671L30.3863 9.04078C31.5692 14.3108 31.5692 19.7764 30.3863 25.0466L30.2671 25.5776Z" fill="#8CA9DC"/>
<path id="Vector_10" d="M29.8378 25.3403L5.08594 8.7959H29.8378L30.3012 12.2527C30.7278 15.4319 30.7286 18.6539 30.3055 21.8333L29.8378 25.3403Z" fill="#91ACDE"/>
<path id="Vector_11" d="M53.5498 3.57812H41.1465V30.3008H53.5498V3.57812Z" fill="#C2CBE0"/>
<path id="Vector_12" d="M44.971 4.16992H41.8145V7.31592H44.971V4.16992Z" fill="#A3B1D0"/>
<path id="Vector_13" d="M44.7154 7.04735C44.7154 7.04735 44.5758 6.08946 43.7826 5.39537C42.9885 4.70129 42.084 4.42383 42.084 4.42383H44.7163L44.7154 7.04735Z" fill="#92A2C7"/>
<path id="Vector_14" d="M48.9612 4.16992H45.8047V7.31592H48.9612V4.16992Z" fill="#A3B1D0"/>
<path id="Vector_15" d="M48.6979 7.04735C48.6979 7.04735 48.5582 6.08946 47.765 5.39537C46.971 4.70129 46.0664 4.42383 46.0664 4.42383H48.6987L48.6979 7.04735Z" fill="#92A2C7"/>
<path id="Vector_16" d="M52.8987 4.16992H49.7422V7.31592H52.8987V4.16992Z" fill="#A3B1D0"/>
<path id="Vector_17" d="M52.6372 7.04735C52.6372 7.04735 52.4977 6.08946 51.7045 5.39537C50.9103 4.70129 50.0059 4.42383 50.0059 4.42383H52.6381L52.6372 7.04735Z" fill="#92A2C7"/>
<path id="Vector_18" d="M44.971 8.16699H41.8145V11.313H44.971V8.16699Z" fill="#A3B1D0"/>
<path id="Vector_19" d="M44.7154 11.0444C44.7154 11.0444 44.5758 10.0865 43.7826 9.39244C42.9885 8.69836 42.084 8.4209 42.084 8.4209H44.7163L44.7154 11.0444Z" fill="#92A2C7"/>
<path id="Vector_20" d="M48.9612 8.16699H45.8047V11.313H48.9612V8.16699Z" fill="#A3B1D0"/>
<path id="Vector_21" d="M48.6979 11.0444C48.6979 11.0444 48.5582 10.0865 47.765 9.39244C46.971 8.69836 46.0664 8.4209 46.0664 8.4209H48.6987L48.6979 11.0444Z" fill="#92A2C7"/>
<path id="Vector_22" d="M52.8987 8.16699H49.7422V11.313H52.8987V8.16699Z" fill="#A3B1D0"/>
<path id="Vector_23" d="M52.6372 11.0444C52.6372 11.0444 52.4977 10.0865 51.7045 9.39244C50.9103 8.69836 50.0059 8.4209 50.0059 8.4209H52.6381L52.6372 11.0444Z" fill="#92A2C7"/>
<path id="Vector_24" d="M44.971 12.1641H41.8145V15.31H44.971V12.1641Z" fill="#A3B1D0"/>
<path id="Vector_25" d="M44.7154 15.0425C44.7154 15.0425 44.5758 14.0846 43.7826 13.3905C42.9885 12.6964 42.084 12.4189 42.084 12.4189H44.7163L44.7154 15.0425Z" fill="#92A2C7"/>
<path id="Vector_26" d="M48.9612 12.1641H45.8047V15.31H48.9612V12.1641Z" fill="#A3B1D0"/>
<path id="Vector_27" d="M48.6979 15.0425C48.6979 15.0425 48.5582 14.0846 47.765 13.3905C46.971 12.6964 46.0664 12.4189 46.0664 12.4189H48.6987L48.6979 15.0425Z" fill="#92A2C7"/>
<path id="Vector_28" d="M52.8987 12.1641H49.7422V15.31H52.8987V12.1641Z" fill="#A3B1D0"/>
<path id="Vector_29" d="M52.6372 15.0425C52.6372 15.0425 52.4977 14.0846 51.7045 13.3905C50.9103 12.6964 50.0059 12.4189 50.0059 12.4189H52.6381L52.6372 15.0425Z" fill="#92A2C7"/>
<path id="Vector_30" d="M44.971 16.1611H41.8145V19.3071H44.971V16.1611Z" fill="#A3B1D0"/>
<path id="Vector_31" d="M44.7154 19.0395C44.7154 19.0395 44.5758 18.0817 43.7826 17.3875C42.9885 16.6935 42.084 16.416 42.084 16.416H44.7163L44.7154 19.0395Z" fill="#92A2C7"/>
<path id="Vector_32" d="M48.9612 16.1611H45.8047V19.3071H48.9612V16.1611Z" fill="#A3B1D0"/>
<path id="Vector_33" d="M48.6979 19.0395C48.6979 19.0395 48.5582 18.0817 47.765 17.3875C46.971 16.6935 46.0664 16.416 46.0664 16.416H48.6987L48.6979 19.0395Z" fill="#92A2C7"/>
<path id="Vector_34" d="M52.8987 16.1611H49.7422V19.3071H52.8987V16.1611Z" fill="#A3B1D0"/>
<path id="Vector_35" d="M52.6372 19.0395C52.6372 19.0395 52.4977 18.0817 51.7045 17.3875C50.9103 16.6935 50.0059 16.416 50.0059 16.416H52.6381L52.6372 19.0395Z" fill="#92A2C7"/>
<path id="Vector_36" d="M44.971 20.1592H41.8145V23.3052H44.971V20.1592Z" fill="#A3B1D0"/>
<path id="Vector_37" d="M44.7154 23.0366C44.7154 23.0366 44.5758 22.0787 43.7826 21.3846C42.9885 20.6906 42.084 20.4131 42.084 20.4131H44.7163L44.7154 23.0366Z" fill="#92A2C7"/>
<path id="Vector_38" d="M52.8998 20.1592H45.8047V23.3052H52.8998V20.1592Z" fill="#D78D67"/>
<path id="Vector_39" d="M52.6365 23.0367C52.6365 23.0367 52.0514 22.6577 50.3554 21.7322C48.7741 20.8691 46.0664 20.4141 46.0664 20.4141H52.6373V23.0376L52.6365 23.0367Z" fill="#D38158"/>
<path id="Vector_40" d="M52.8987 24.1191H42.5383C42.1383 24.1191 41.8145 24.4418 41.8145 24.8405V28.7266C41.8145 29.1253 42.1391 29.448 42.5383 29.448H52.8987V24.1182V24.1191Z" fill="#92A2C7"/>
<path id="Vector_41" d="M38.1372 0.838867H37.6172V32.7428H38.1372V0.838867Z" fill="#899BC3"/>
<path id="Vector_42" d="M32.1852 27.6924H2.47461V28.0057H32.1852V27.6924Z" fill="white"/>
<path id="Vector_43" d="M32.1852 5.74219H2.47461V6.18613H32.1852V5.74219Z" fill="#BBC6DC"/>
<path id="Vector_44" d="M55.4432 32.7432H0V34.2235H55.4432V32.7432Z" fill="#BBC6DC"/>
<path id="Vector_45" d="M55.4432 32.7432H0V33.1691H55.4432V32.7432Z" fill="#8396BF"/>
<path id="Vector_46" d="M7.36404 35.1619H4.3343C3.8195 35.1619 3.40234 34.7462 3.40234 34.233V34.2236H8.296V34.233C8.296 34.7462 7.87885 35.1619 7.36404 35.1619Z" fill="#8799C1"/>
<path id="Vector_47" d="M51.2575 35.1619H48.2269C47.7121 35.1619 47.2949 34.7462 47.2949 34.233V34.2236H52.1886V34.233C52.1886 34.7462 51.7722 35.1619 51.2575 35.1619Z" fill="#8799C1"/>
</g>
<defs>
<clipPath id="clip0_397_1160">
<rect width="56" height="34.3226" fill="white" transform="translate(0 0.838867)"/>
</clipPath>
</defs>
</svg>
