<svg width="41" height="40" viewBox="0 0 41 40" fill="none" xmlns="http://www.w3.org/2000/svg">
<path d="M8.77612 21.1332C9.0514 21.2912 9.35145 21.3663 9.64756 21.3663C10.2555 21.3663 10.8468 21.0501 11.1711 20.4847L12.0215 18.9149L14.6991 13.9712L14.7377 13.8996V21.8447L13.5009 36.508L13.3687 38.0754C13.2873 39.0407 14.0041 39.8898 14.9698 39.9712C15.0038 39.9738 15.0378 39.9745 15.0714 39.9755C15.0872 39.9759 15.1034 39.9775 15.1192 39.9775C16.0216 39.9775 16.7886 39.2861 16.8657 38.3701L18.6573 22.6066H20.4997L21.6972 38.2551C21.7147 39.2128 22.4968 39.9775 23.451 39.9775C23.4619 39.9775 23.4731 39.9775 23.484 39.9772C24.4527 39.9592 25.2239 39.1595 25.2061 38.1907C25.2061 38.1907 24.6885 18.3596 24.6802 18.3421V11.5587L24.7026 11.5751L26.4428 12.8432L27.5094 16.2063C26.6546 16.8314 26.1998 17.9297 26.1656 19.0214C26.126 20.2881 27.7399 20.0477 27.8731 19.3276C27.9915 18.6873 28.037 18.3322 28.1583 18.1769C28.4581 18.773 29.0704 19.1416 29.7241 19.1413C29.8996 19.1413 30.0786 19.1149 30.255 19.0589C30.6387 18.9372 30.9458 18.6916 31.1587 18.3846C31.2629 18.656 31.2537 18.8538 31.2678 19.0265C31.2876 19.2669 31.3011 39.2526 31.3011 39.2526C31.3011 39.2526 31.3565 39.9999 32.2233 39.9999C33.0901 39.9999 33.1049 39.1861 33.1049 39.1861V18.7655C33.1049 18.7655 33.1198 17.815 32.6064 17.0154C32.6064 17.0154 32.0944 16.1908 31.0704 15.8285L29.5761 11.1176C29.5761 11.1176 29.4271 10.5568 28.8906 10.1819L24.9413 7.42291C24.6607 7.25182 24.3515 7.17562 24.0452 7.17266C24.0225 7.17031 22.8339 7.16569 22.8339 7.16569C22.8263 7.14624 22.8421 7.10997 22.8826 7.06542C23.5675 6.31535 23.9849 5.31731 23.9849 4.22134C23.9847 1.8899 22.0948 0 19.7634 0C17.432 0 15.5421 1.8899 15.5421 4.22127C15.5421 5.31724 15.9602 6.31529 16.6451 7.06604C16.6849 7.1099 16.6856 7.14583 16.6569 7.16528C16.6569 7.16528 15.3971 7.16955 15.3767 7.17155C14.7914 7.193 14.2296 7.50159 13.9168 8.04727L8.1277 18.7378C7.64519 19.5783 7.93571 20.6505 8.77612 21.1332Z" fill="#DC366E"/>
</svg>
