<svg width="56" height="52" viewBox="0 0 56 52" fill="none" xmlns="http://www.w3.org/2000/svg">
<g id="machines.svg" clip-path="url(#clip0_397_1232)">
<path id="Vector" d="M42.004 24.0813C43.1611 27.37 45.1201 30.4483 44.5467 34.1927C43.7055 35.0457 42.9365 34.3212 42.1219 34.1044C38.4156 33.1189 34.5761 34.4394 32.6956 37.31C30.4663 40.7155 30.7645 43.8756 33.5166 47.5668C33.9835 48.1926 35.449 48.5886 34.434 49.8882C31.4243 50.5297 28.379 50.4426 25.4366 49.7389C22.5131 49.0392 20.8345 46.9917 20.832 43.7627C22.2455 42.1852 24.4305 43.5835 25.9251 42.3696C26.0888 42.0528 26.1966 41.7139 26.2854 41.3699C26.3705 41.0492 26.4923 40.7349 26.5329 40.4026C26.5304 40.0728 26.4594 39.7547 26.3692 39.434C26.2804 39.203 26.1801 38.9862 26.038 38.7849C25.3072 38.2279 24.3492 38.3422 23.5993 37.876C22.2505 37.0386 22.0159 36.0182 22.8786 34.599C23.6552 33.3215 24.2312 31.9179 24.9494 30.5976C27.8018 25.1719 32.6652 23.0621 38.2393 21.9533C40.2758 21.5482 41.3314 22.2935 42.0064 24.0786L42.004 24.0813Z" fill="#E9C1AD"/>
<path id="Vector_2" d="M45.3216 35.5869C46.513 36.3256 47.1626 37.4292 47.3974 38.8132C47.2274 41.3372 47.5293 43.8922 45.8354 46.1644C43.7989 48.8974 40.8857 50.3489 37.919 49.679C34.3372 48.8701 32.1167 46.5396 31.4785 42.9173C30.9494 39.9155 32.4123 36.5671 35.0541 34.8416C35.8813 34.3015 36.7518 33.8172 37.7376 33.6302C38.7413 33.5601 39.75 33.581 40.755 33.603C42.5351 33.6367 43.6682 35.2363 45.3202 35.5881L45.3216 35.5869Z" fill="#9CB5E1"/>
<path id="Vector_3" d="M12.9982 32.2748C12.2711 35.5349 11.5948 38.808 10.8031 42.0513C9.78802 46.2085 9.74868 46.1943 13.814 46.4941C15.4559 46.6162 17.3744 46.4669 16.551 49.205C14.8595 49.7205 13.1518 49.5231 11.4426 49.3323C8.188 48.8558 4.87378 49.0973 1.63189 48.4702C0.142268 45.7047 2.20287 45.5568 3.794 45.8359C6.82019 46.3695 7.73757 44.9608 8.25271 42.2136C8.88714 38.8326 9.98722 35.544 10.8868 32.2151C11.605 31.6593 12.3105 31.5971 12.9956 32.2734L12.9982 32.2748Z" fill="#A9BFE5"/>
<path id="Vector_4" d="M38.0094 34.2335C34.0125 35.6319 32.0407 38.1311 32.0851 41.7471C32.127 45.2057 34.3868 47.8881 38.0703 48.8502C41.7309 49.8058 46.0183 46.5976 46.5588 42.3728C46.7174 41.1368 46.6959 39.8982 47.3962 38.8128C47.8885 39.2244 47.9862 39.7658 47.8885 40.372C47.2909 41.4822 47.7515 42.6922 47.5776 43.8438C47.2364 44.7981 46.8849 45.7498 46.6742 46.7456C46.7377 46.9416 46.6742 47.0728 46.4839 47.1415C45.2418 48.2556 43.9272 49.2786 42.6558 50.3576C41.623 51.0106 40.5343 51.3962 39.3011 51.1015C38.4953 50.5575 37.5919 50.4796 36.6631 50.5302C35.9208 50.3173 35.1786 50.1044 34.4362 49.8927C30.4927 46.3626 29.4929 42.748 31.2439 38.3596C32.7284 34.6386 36.2837 32.6561 40.5407 32.8521C42.0785 32.9236 43.1024 34.1219 44.5489 34.1959C44.8065 34.6595 45.0628 35.1243 45.3204 35.5891C43.5313 36.5498 42.7218 34.44 41.3019 34.2465C40.2057 33.6986 39.1082 33.722 38.0094 34.2361V34.2335Z" fill="#7389B7"/>
<path id="Vector_5" d="M21.9844 4.37163C30.8447 -0.101124 39.8649 -0.416619 48.8801 3.67053C51.787 4.98835 54.26 7.13319 55.2243 10.5322C55.0657 11.1814 54.619 11.4826 54.0088 11.5838C53.7157 11.5631 53.4745 11.4333 53.2791 11.2113C52.5825 10.1908 51.8847 9.17027 51.188 8.14978C50.5118 6.21656 49.1515 5.29734 47.1645 5.30384C45.4301 4.77671 43.6956 4.25088 41.9623 3.72377C37.9909 2.33455 34.0231 2.41635 30.058 3.75233L29.7992 3.89515L29.5201 3.80166C27.7551 3.66015 26.1766 4.42357 24.5347 4.88058C23.9828 5.08182 23.4626 5.40251 22.8434 5.35966C22.393 5.1792 22.0948 4.8611 21.9856 4.37163H21.9844Z" fill="#AEC2E6"/>
<path id="Vector_6" d="M42.005 24.0822C40.7463 22.5931 39.3087 22.3814 37.3788 22.754C32.2209 23.7512 28.0007 25.9843 25.4046 30.8478C25.0227 31.3023 24.7639 32.0476 23.9531 31.4944C26.5632 26.4517 30.1197 22.7371 36.0388 22.075C37.3978 21.9231 38.697 21.2155 40.023 20.7637C40.6537 21.1389 41.5875 20.717 42.0405 21.5648C42.029 22.4035 42.0176 23.2422 42.0062 24.0809L42.005 24.0822Z" fill="#EDCCBC"/>
<path id="Vector_7" d="M12.9994 32.2744C12.2965 32.2549 11.5936 32.2354 10.8906 32.2159C11.4235 28.9234 12.261 25.7139 13.4068 22.5901C14.2112 22.6005 13.6326 21.1437 14.5602 21.3917C15.5904 21.667 14.871 22.7926 15.3468 23.3704C14.7568 26.3916 14.1414 29.4051 12.9994 32.2744Z" fill="#A5BBE4"/>
<path id="Vector_8" d="M53.2794 11.21C53.4901 11.21 53.7007 11.2113 53.9113 11.2126C54.972 12.468 55.2195 13.8638 54.5977 15.4088C53.8644 16.7617 53.0967 18.069 51.2988 18.008C50.4335 18.3547 49.7623 17.9471 49.1189 17.4238C48.973 17.1031 49.0097 16.8032 49.2254 16.5267C51.4307 15.436 53.9684 14.6116 53.2807 11.21H53.2794Z" fill="#AEC2E6"/>
<path id="Vector_9" d="M14.2631 18.7047C14.4203 17.2649 14.6627 15.8497 15.391 14.5747C16.6396 13.053 17.0291 14.1632 17.4199 15.268C16.8527 17.5907 16.5837 19.9966 15.556 22.1894C14.5244 21.2612 14.5167 19.9355 14.2617 18.7047H14.2631Z" fill="#A9BFE5"/>
<path id="Vector_10" d="M49.225 16.5268C49.2377 16.7891 49.2517 17.0513 49.2643 17.3136C48.385 19.0313 46.7749 18.5496 45.3677 18.6729C44.1001 18.8561 42.9684 19.2027 42.9138 20.8334C42.6233 21.0775 42.3314 21.3203 42.0409 21.5643C41.2072 21.7215 40.4002 21.8111 40.0234 20.7633C42.1081 17.1176 45.4527 16.3347 49.225 16.5268Z" fill="#AFC3E7"/>
<path id="Vector_11" d="M17.4195 15.2656C16.8485 14.7112 16.3511 13.9322 15.3906 14.5723C15.4477 12.1755 15.298 9.69052 17.9436 8.41816C18.5133 8.07539 19.0588 8.07539 19.5753 8.53241C18.3698 10.6136 17.1264 12.6818 17.4195 15.2656Z" fill="#A9BFE5"/>
<path id="Vector_12" d="M30.0586 3.75232C33.0011 1.80871 39.5889 1.79314 41.9629 3.72376C37.9939 3.22389 34.0263 3.39787 30.0586 3.75232Z" fill="#9BB4E1"/>
<path id="Vector_13" d="M19.5731 8.53355C19.0302 8.4959 18.4857 8.45824 17.9414 8.4193C18.1685 5.89923 20.1936 5.25785 21.9827 4.37109C22.2441 4.61647 22.5055 4.86057 22.7668 5.10595C23.1868 5.53699 23.1221 5.97063 22.777 6.40817C21.7086 7.11707 20.6403 7.82596 19.5719 8.53355H19.5731Z" fill="#ACC1E6"/>
<path id="Vector_14" d="M23.9551 31.4942C24.4397 31.2787 24.9232 31.0633 25.4079 30.8477C24.8255 32.1304 24.5057 33.6689 23.6011 34.6362C22.232 36.1008 23.2635 36.737 24.0871 37.6016C23.4335 38.3767 22.6494 38.3585 21.807 38.0002C21.6863 37.882 21.5658 37.7627 21.4453 37.6445C21.6813 35.3373 22.7637 33.3924 23.9564 31.4942H23.9551Z" fill="#E9C1AD"/>
<path id="Vector_15" d="M26.7438 42.383C27.1625 44.1851 25.7363 43.6281 24.9979 43.6968C23.6199 43.8254 22.2229 43.7526 20.8335 43.7644C20.8183 43.2892 20.8031 42.8127 20.7891 42.3375C22.7824 41.0859 24.7682 41.0729 26.7438 42.3816V42.383Z" fill="#E2AD92"/>
<path id="Vector_16" d="M26.7438 42.3831C24.7594 42.3688 22.7736 42.3545 20.7891 42.339C20.7993 41.9183 20.8081 41.499 20.8183 41.0795C22.7876 39.7787 24.7618 39.6008 26.7463 41.0445C26.7463 41.4911 26.7451 41.9364 26.7438 42.3831Z" fill="#E8BEA8"/>
<path id="Vector_17" d="M1.63672 48.4694C4.91921 48.8499 8.3083 47.6593 11.5134 49.1719C11.351 49.2653 11.1886 49.3588 11.0262 49.4536C9.54288 49.4523 8.04946 49.6692 6.58267 49.2653C4.90526 49.19 3.11492 49.8418 1.63672 48.4708V48.4694Z" fill="#A1B8E2"/>
<path id="Vector_18" d="M42.916 20.8333C42.5925 20.584 41.2145 20.9359 42.3426 19.857C43.0531 19.1779 43.8664 18.6119 44.6341 17.9951C45.913 18.9196 47.5702 17.7017 48.8238 18.7703C46.9675 19.7972 44.3588 18.5677 42.916 20.8347V20.8333Z" fill="#A5BBE4"/>
<path id="Vector_19" d="M47.1641 5.30463C49.6803 4.60611 50.7739 5.37862 51.1876 8.14927C49.8465 7.20148 48.5053 6.2524 47.1641 5.30463Z" fill="#A4BAE3"/>
<path id="Vector_20" d="M48.8225 18.7692C47.4496 18.3745 45.8535 19.247 44.6328 17.9941C46.1998 17.9292 47.8189 18.2278 49.2654 17.3125C49.943 17.5449 50.6218 17.776 51.2993 18.0084C50.6128 18.7355 49.7311 18.7991 48.8225 18.7692Z" fill="#A4BAE3"/>
<path id="Vector_21" d="M14.2615 18.7041C14.6929 19.8661 15.1243 21.0269 15.5558 22.1889C15.4859 22.5836 15.4161 22.977 15.3463 23.3717C14.9796 22.3823 14.396 21.9604 13.4062 22.5914C13.6917 21.2957 13.976 20.0012 14.2615 18.7054V18.7041Z" fill="#9FB7E2"/>
<path id="Vector_22" d="M24.1425 4.47078C25.9378 4.26824 27.5544 2.55834 29.521 3.80214C28.0175 4.28642 26.5126 4.76939 25.0091 5.25367C24.2694 5.51594 24.0334 5.19265 24.1425 4.47078Z" fill="#9EB6E2"/>
<path id="Vector_23" d="M26.7238 39.0065C26.7289 39.2272 26.7301 39.4492 26.7289 39.6699C25.2279 40.9864 23.369 39.9829 21.7411 40.4775C21.3858 40.6502 21.0813 40.584 20.8263 40.2762C20.792 39.3401 20.575 38.3599 21.4429 37.6445L21.5749 37.7341C23.0695 39.0947 25.2621 37.5043 26.7238 39.0065Z" fill="#EAC4B1"/>
<path id="Vector_24" d="M42.6562 50.3566C43.5039 48.7505 44.7701 47.6677 46.4844 47.1406C45.7268 48.8596 44.3603 49.8165 42.6562 50.3566Z" fill="#9CB5E1"/>
<path id="Vector_25" d="M20.8253 40.2758C21.0257 40.294 21.225 40.3044 21.4267 40.3044C23.415 39.8915 25.402 39.7954 27.3826 40.355C27.1695 40.5848 26.9576 40.8133 26.7445 41.0431C24.7689 41.0549 22.792 41.0652 20.8164 41.0782C20.819 40.8107 20.8228 40.5433 20.8253 40.2758Z" fill="#E2AC90"/>
<path id="Vector_26" d="M54.5966 15.4091C54.3682 14.0108 54.1386 12.6125 53.9102 11.2129C54.348 10.9857 54.7857 10.7585 55.2247 10.5312C55.5863 11.9517 55.3947 13.3876 55.3452 14.821C55.0953 15.017 54.8454 15.213 54.5966 15.4091Z" fill="#9FB7E2"/>
<path id="Vector_27" d="M55.3472 14.821C54.7927 13.4058 54.6556 11.9789 55.2266 10.5312C56.1947 11.9334 56.276 13.3629 55.3472 14.821Z" fill="#AEC2E6"/>
<path id="Vector_28" d="M11.5111 49.1719C13.1923 49.1823 14.8722 49.1926 16.5535 49.2044C15.0346 50.8909 13.2088 49.6316 11.5263 49.7523C11.2992 49.6237 11.223 49.4939 11.2966 49.3628C11.3702 49.2303 11.4438 49.1641 11.52 49.1641L11.5111 49.1731V49.1719Z" fill="#99B3E0"/>
<path id="Vector_29" d="M36.6641 50.5288C37.8491 49.2422 38.6015 50.0432 39.3019 51.1C38.3554 51.2338 37.4406 51.217 36.6641 50.5288Z" fill="#9CB5E1"/>
<path id="Vector_30" d="M11.519 49.1631C11.5178 49.3591 11.5192 49.5551 11.5254 49.7524C9.85311 49.8603 8.18585 49.8992 6.58203 49.2656C8.22646 49.2319 9.87341 49.1981 11.519 49.1631Z" fill="#A9BFE5"/>
<path id="Vector_31" d="M24.1411 4.4707C24.4304 4.73167 24.7184 4.99263 25.0077 5.25231C24.2654 5.63791 23.5219 6.02222 22.7796 6.40782C22.7758 5.97418 22.7733 5.54054 22.7695 5.1056C23.2263 4.89396 23.6843 4.68234 24.1411 4.4707Z" fill="#A5BBE4"/>
<path id="Vector_32" d="M47.3108 43.7285C47.4276 42.5964 46.8502 41.3383 47.8869 40.3711C48.1419 41.4941 48.1851 42.6159 47.8793 43.7376C47.6851 44.0596 47.4948 44.0557 47.3108 43.7285Z" fill="#99B3E0"/>
<path id="Vector_33" d="M47.3125 43.7285C47.5016 43.7338 47.692 43.7376 47.8811 43.7376C47.8835 44.9087 47.5714 45.9487 46.6756 46.7432C46.5094 45.6553 46.7606 44.6581 47.3125 43.7285Z" fill="#9CB5E1"/>
<path id="Vector_34" d="M28.0061 34.2906C28.9488 35.1008 28.95 35.8682 27.7028 36.1876C26.6014 36.4693 25.4379 36.3524 24.9265 35.0372C24.6817 34.4088 24.6144 33.5091 25.2908 33.2208C26.4061 32.7444 27.7168 32.3418 28.0264 34.2894L27.8969 34.34L28.0061 34.2906Z" fill="#E9C1AD"/>
<path id="Vector_35" d="M26.7206 39.0063C25.0457 38.4013 22.7846 40.2851 21.5703 37.7339C22.4078 37.6911 23.2453 37.647 24.0814 37.6028C24.8935 38.2014 26.8843 36.485 26.7193 39.0063H26.7206Z" fill="#E5B49B"/>
<path id="Vector_36" d="M27.3817 40.3555C25.3961 40.3387 23.4115 40.3232 21.4258 40.3063C23.0741 39.0521 24.9671 39.9506 26.7271 39.6701C26.9453 39.8986 27.1635 40.1271 27.3817 40.3555Z" fill="#E5B69D"/>
<path id="Vector_37" d="M41.9863 37.648C44.5748 38.5387 45.0506 40.5096 44.3324 42.8726C43.4277 45.8483 40.843 47.2076 37.9044 46.439C35.5202 45.8158 33.6538 42.9842 34.0966 40.5874C34.259 39.7059 34.5966 38.8775 35.354 38.318C37.4375 36.782 39.6606 36.6782 41.9863 37.6468V37.648Z" fill="#A7BDE4"/>
<path id="Vector_38" d="M41.9839 37.6482C39.7735 37.8715 37.5619 38.0949 35.3516 38.3194C37.3538 35.937 39.5362 35.4229 41.9839 37.6482Z" fill="#A9BFE5"/>
<path id="Vector_39" d="M38.0078 34.2335C39.1092 33.2545 40.2067 33.2714 41.3005 34.2439C40.2029 34.24 39.1054 34.236 38.0078 34.2335Z" fill="#A5BBE4"/>
<path id="Vector_40" d="M28.0033 34.2909C27.5871 35.0946 27.1925 36.0021 26.0886 35.1997C25.9008 35.0634 25.76 34.548 25.8627 34.3519C26.5163 33.103 27.2877 33.9326 28.0237 34.2883L28.0033 34.2896V34.2909Z" fill="#DB9876"/>
</g>
<defs>
<clipPath id="clip0_397_1232">
<rect width="56" height="51.52" fill="white" transform="translate(0 0.240234)"/>
</clipPath>
</defs>
</svg>
