<svg width="33" height="33" viewBox="0 0 33 33" fill="none" xmlns="http://www.w3.org/2000/svg">
<rect x="0.5" y="0.295898" width="32" height="31.8981" rx="15.9491" fill="#FDF2F7"/>
<path d="M12.8059 10.6018C12.61 10.7978 12.5 11.0635 12.5 11.3405C12.5 11.6176 12.61 11.8833 12.8059 12.0792L17.9779 17.2513L12.8059 22.4233C12.6156 22.6204 12.5103 22.8843 12.5127 23.1582C12.515 23.4322 12.6249 23.6943 12.8186 23.888C13.0124 24.0817 13.2744 24.1916 13.5484 24.194C13.8223 24.1964 14.0863 24.091 14.2833 23.9007L20.1941 17.99C20.39 17.794 20.5 17.5283 20.5 17.2513C20.5 16.9742 20.39 16.7085 20.1941 16.5126L14.2833 10.6018C14.0874 10.4059 13.8217 10.2959 13.5446 10.2959C13.2676 10.2959 13.0019 10.4059 12.8059 10.6018Z" fill="#FF3586"/>
</svg>
