<svg width="33" height="33" viewBox="0 0 33 33" fill="none" xmlns="http://www.w3.org/2000/svg">
<rect x="32.5" y="32.1943" width="32" height="31.8981" rx="15.9491" transform="rotate(180 32.5 32.1943)" fill="#FDF2F7"/>
<path d="M20.1941 21.8884C20.39 21.6925 20.5 21.4268 20.5 21.1497C20.5 20.8726 20.39 20.6069 20.1941 20.411L15.0221 15.239L20.1941 10.0669C20.3844 9.86988 20.4897 9.60594 20.4873 9.33199C20.485 9.05803 20.3751 8.79597 20.1814 8.60224C19.9876 8.40852 19.7256 8.29863 19.4516 8.29625C19.1777 8.29387 18.9137 8.39919 18.7167 8.58952L12.8059 14.5003C12.61 14.6962 12.5 14.9619 12.5 15.239C12.5 15.516 12.61 15.7817 12.8059 15.9777L18.7167 21.8884C18.9126 22.0843 19.1783 22.1943 19.4554 22.1943C19.7324 22.1943 19.9981 22.0843 20.1941 21.8884Z" fill="#FF3586"/>
</svg>
