<svg width="89" height="48" viewBox="0 0 89 48" fill="none" xmlns="http://www.w3.org/2000/svg">
<path d="M83.5525 33.4346V14.7383C83.5519 14.0016 83.2587 13.2953 82.7375 12.7748C82.2169 12.2535 81.5107 11.9604 80.774 11.9597C80.0371 11.9597 79.3303 12.2525 78.8093 12.7735C78.2882 13.2946 77.9955 14.0013 77.9955 14.7383V23.0738H11.1565V3.77852C11.1559 3.04186 10.8627 2.33561 10.3415 1.81503C9.82093 1.29381 9.11468 1.00065 8.37802 1C7.64111 1 6.93438 1.29273 6.4133 1.81381C5.89223 2.33488 5.59949 3.04161 5.59949 3.77852V33.4933C4.32074 34.0283 3.22842 34.929 2.45952 36.0823C1.69062 37.2357 1.27937 38.5904 1.27734 39.9765C1.27979 41.8385 2.02054 43.6235 3.33717 44.9402C4.6538 46.2568 6.43884 46.9975 8.30083 47C10.1628 46.9975 11.9479 46.2568 13.2645 44.9402C14.5811 43.6235 15.3219 41.8385 15.3243 39.9765C15.3229 38.619 14.9286 37.2909 14.189 36.1526C13.4495 35.0142 12.3963 34.1142 11.1565 33.5612V28.6216H77.9955V33.2957C76.6737 33.8214 75.5403 34.732 74.7421 35.9094C73.944 37.0868 73.5178 38.4769 73.519 39.8993C73.519 41.7825 74.2671 43.5886 75.5987 44.9203C76.9303 46.2519 78.7364 47 80.6196 47C82.5028 47 84.3089 46.2519 85.6406 44.9203C86.9722 43.5886 87.7203 41.7825 87.7203 39.8993C87.7199 38.5353 87.3267 37.2002 86.5876 36.0538C85.8485 34.9073 84.7948 33.998 83.5525 33.4346ZM12.2371 39.9765C12.2363 41.0202 11.8213 42.0209 11.0833 42.759C10.3453 43.497 9.34454 43.9119 8.30083 43.9128C7.25713 43.9119 6.2564 43.497 5.51839 42.759C4.78038 42.0209 4.36541 41.0202 4.36459 39.9765C4.36413 39.4414 4.47349 38.9118 4.6859 38.4206C4.89831 37.9294 5.20925 37.487 5.59949 37.1208C5.59949 37.8577 5.89223 38.5644 6.4133 39.0855C6.93438 39.6066 7.64111 39.8993 8.37802 39.8993C9.08995 39.9003 9.77512 39.628 10.2921 39.1386C10.8091 38.6491 11.1186 37.9799 11.1565 37.269C11.8519 37.9987 12.2389 38.9685 12.2371 39.9765ZM80.6196 43.9128C79.5552 43.9128 78.5344 43.4899 77.7817 42.7372C77.0291 41.9846 76.6062 40.9638 76.6062 39.8993C76.6065 39.3234 76.7307 38.7543 76.9704 38.2307C77.2101 37.707 77.5597 37.2411 77.9955 36.8646V37.2752C77.9955 38.0121 78.2882 38.7188 78.8093 39.2399C79.3303 39.761 80.0371 40.0537 80.774 40.0537C81.5109 40.0537 82.2177 39.761 82.7387 39.2399C83.2598 38.7188 83.5525 38.0121 83.5525 37.2752V37.1609C84.2466 37.9039 84.6327 38.8826 84.6331 39.8993C84.6331 40.9638 84.2102 41.9846 83.4576 42.7372C82.7049 43.4899 81.6841 43.9128 80.6196 43.9128Z" fill="#DC366E" stroke="#DC366E" stroke-miterlimit="10"/>
<path d="M16.7121 15.3926H19.4906C20.749 15.3926 21.7692 16.4127 21.7692 17.6711C21.7692 18.9295 20.749 19.9496 19.4906 19.9496H16.7121C15.4537 19.9496 14.4336 18.9295 14.4336 17.6711C14.4336 16.4127 15.4537 15.3926 16.7121 15.3926Z" fill="#DC366E" stroke="#DC366E"/>
<path d="M27.8293 15.3926H72.2857C73.5441 15.3926 74.5642 16.4127 74.5642 17.6711C74.5642 18.9295 73.5441 19.9496 72.2857 19.9496H27.8293C26.5709 19.9496 25.5508 18.9295 25.5508 17.6711C25.5508 16.4127 26.5709 15.3926 27.8293 15.3926Z" fill="#DC366E" stroke="#DC366E"/>
</svg>
