<svg width="56" height="46" viewBox="0 0 56 46" fill="none" xmlns="http://www.w3.org/2000/svg">
<g id="computers.svg" clip-path="url(#clip0_397_1126)">
<g id="Clip path group">
<mask id="mask0_397_1126" style="mask-type:luminance" maskUnits="userSpaceOnUse" x="0" y="0" width="56" height="46">
<g id="clip0_270_562">
<path id="Vector" d="M55.1212 0.695312H0.0703125V45.3055H55.1212V0.695312Z" fill="white"/>
</g>
</mask>
<g mask="url(#mask0_397_1126)">
<g id="Group">
<path id="Vector_2" d="M32.2709 42.0236C34.2117 42.0397 36.1534 42.0558 38.0941 42.073C39.1646 42.0825 40.1253 42.3564 40.7067 43.3085C41.3377 44.3415 41.4874 45.286 39.8122 45.2907C31.6779 45.3136 23.5426 45.3031 15.4074 45.3059C13.805 45.3059 14.0462 44.4328 14.5945 43.5444C15.489 42.0939 16.9884 42.0673 18.5032 42.053C23.3637 42.0073 22.8824 42.8206 22.8542 37.7053C22.8523 37.3439 22.8143 36.9834 22.7939 36.6219C23.0973 36.4307 23.3754 36.4612 23.6291 36.7113C24.2096 37.5046 24.1182 38.4367 24.195 39.3318C24.2816 41.0933 25.5514 41.1742 26.9243 41.2636C28.7221 41.3805 30.6394 40.7737 32.2709 42.0236Z" fill="#C4CDE1"/>
<path id="Vector_3" d="M55.0631 1.81684C55.0592 3.44807 55.0563 5.08026 55.0524 6.71149C54.75 6.9255 54.4204 6.98067 54.0616 6.87889C53.7661 6.67629 53.5521 6.41092 53.415 6.08563C53.3762 3.5974 51.9498 3.06951 49.6221 3.08473C36.3142 3.16843 23.0053 3.1361 9.69636 3.11136C8.33905 3.10851 6.90198 3.40242 5.68174 2.4817C5.5252 1.22712 6.52279 1.57429 7.1227 1.57239C10.8574 1.56003 14.5929 1.4982 17.0043 1.56193C13.4466 1.79116 8.5481 1.10252 3.67394 1.98139C2.62969 2.16972 1.44347 2.17447 0.578125 1.25851C1.41625 0.41769 2.49259 0.767715 3.46392 0.766764C19.7859 0.745838 36.108 0.748692 52.43 0.769617C53.3032 0.770568 54.2969 0.40913 55.0125 1.27468C54.1472 1.75692 53.2021 1.52388 52.2959 1.52579C42.9638 1.54481 33.6316 1.52388 24.2994 1.56193C23.4875 1.56573 22.5084 1.10252 21.9202 1.80733C22.0942 1.249 22.7593 1.56764 23.2406 1.56669C33.4041 1.54956 43.5685 1.55147 53.732 1.55337C54.1948 1.55337 54.6576 1.54196 55.0621 1.81589L55.0631 1.81684Z" fill="#C6CFE2"/>
<path id="Vector_4" d="M0.577122 1.25971H18.9206V1.8171C15.4466 1.8171 11.9735 1.79141 8.5014 1.83326C7.53298 1.84468 6.45373 1.47563 5.63699 2.35735C4.93693 3.4664 3.0176 2.48861 2.59271 4.06943C2.29615 10.1654 2.86301 16.2661 2.30101 22.3478C2.03169 23.007 0.897009 23.2771 1.39094 24.2872C1.43178 27.3433 1.424 30.3964 1.40456 33.4497C1.39774 34.515 1.52706 35.6298 0.658795 36.501C-0.148216 36.0149 0.109443 35.2217 0.109443 34.5359C0.104582 24.0361 0.11625 13.5363 0.126945 3.03647C0.126945 2.41061 0.0326318 1.75622 0.575177 1.25781L0.577122 1.25971Z" fill="#C6CFE2"/>
<path id="Vector_5" d="M0.659133 36.502C0.655244 32.1885 0.651354 27.8751 0.648438 23.5625C2.20898 23.8554 1.88521 25.1234 1.93188 26.103C2.03397 28.2593 1.9484 30.4203 1.97758 32.5794C1.99216 33.62 2.05633 34.5883 3.51673 34.6359C8.94024 34.8109 14.3637 34.7538 19.7873 34.7129C20.5709 34.7072 21.166 34.2592 21.833 33.9691C25.3858 33.5183 28.9366 33.405 32.4807 34.0053C32.7792 34.1451 32.96 34.3809 33.0203 34.6986C30.2191 35.9038 27.2983 34.8375 24.6682 35.2531C27.1593 35.1942 29.872 35.3122 32.5867 35.1818C33.1953 34.5512 33.7991 34.8119 34.4029 35.1894C34.5994 35.372 34.6936 35.6003 34.6995 35.8638C34.4748 36.4535 33.7884 36.1948 33.4219 36.5258C33.0757 36.5496 32.7306 36.5724 32.3844 36.5962C29.7534 37.9925 26.9872 37.4122 24.2404 37.1326C23.9273 36.9776 23.6347 36.7931 23.3595 36.58C23.1709 36.5943 22.9813 36.6076 22.7916 36.6219C15.4139 36.5819 8.036 36.542 0.658161 36.502H0.659133Z" fill="#B9C4DB"/>
<path id="Vector_6" d="M32.8469 34.4521C29.1473 34.4531 25.4477 34.455 21.748 34.4559C20.8526 35.1093 19.8054 34.9515 18.803 34.9467C13.817 34.9201 8.83002 35.0561 3.84599 34.8526C2.96509 34.8164 1.93055 35.1684 1.68359 33.8509C2.66367 32.9112 3.92086 33.1167 5.09735 33.1167C20.8137 33.1081 36.53 33.0767 52.2433 33.1214C52.5915 33.1252 52.9376 33.1576 53.2818 33.2108C53.6241 33.2775 53.9371 33.4135 54.222 33.6122C54.3183 33.7511 54.4136 33.8919 54.5089 34.0326C54.5205 34.3199 54.5332 34.6081 54.5448 34.8954C54.2832 35.1407 53.9721 35.2853 53.6133 35.331C48.2142 34.999 42.8091 35.2539 37.407 35.1788C35.8474 35.1569 34.2878 35.1684 32.8459 34.4531L32.8469 34.4521Z" fill="#E5E9F2"/>
<path id="Vector_7" d="M32.2715 42.0237C30.2725 42.0199 28.2618 41.8848 26.2773 42.0475C24.0361 42.2311 22.9948 41.5376 23.4673 39.2482C23.7249 39.0284 24.0138 38.8592 24.3327 38.7384C26.9871 38.5605 29.6775 37.8956 32.221 39.2758C32.2375 40.1917 32.255 41.1087 32.2715 42.0237Z" fill="#AAB7D3"/>
<path id="Vector_8" d="M32.2191 39.2772L23.9516 39.2734C23.5715 38.3689 23.5267 37.4662 23.973 36.5674C26.7771 36.5769 29.5812 36.5864 32.3854 36.5959C32.33 37.489 32.2745 38.3831 32.2191 39.2772Z" fill="#8B9DC4"/>
<path id="Vector_9" d="M55.0637 1.81657H21.8936L21.8906 1.27441C32.9321 1.27441 43.9736 1.27441 55.0151 1.27441C55.0316 1.45513 55.0472 1.63585 55.0637 1.81657Z" fill="#C6CFE2"/>
<path id="Vector_10" d="M54.5197 6.71112C54.6966 6.70827 54.8726 6.70827 55.0495 6.71112C55.069 15.0689 55.0933 23.4258 55.1031 31.7836C55.1031 32.5712 55.28 33.4272 54.508 34.0312C54.508 34.0321 54.5245 33.8495 54.5245 33.8495C53.6757 32.9783 53.7369 31.8739 53.735 30.7991C53.7185 23.7872 53.7185 16.7762 53.735 9.76433C53.7379 8.68857 53.6777 7.58618 54.5197 6.71112Z" fill="#B9C4DB"/>
<path id="Vector_11" d="M53.9598 34.9374C54.1542 34.9241 54.3486 34.9097 54.5431 34.8955C54.5684 35.4424 55.6671 36.0236 54.4906 36.5343C48.9193 36.0141 43.3344 36.463 37.7582 36.2966C36.677 36.2643 35.5599 36.5638 34.5156 36.0446C34.5156 35.8638 34.5156 35.6841 34.5156 35.5033C35.4548 34.672 36.6138 34.9849 37.6844 34.9745C43.1088 34.9231 48.5343 34.9954 53.9587 34.9374H53.9598Z" fill="#B9C4DB"/>
<path id="Vector_12" d="M34.5176 36.045C40.2144 36.045 45.9101 36.0288 51.6068 36.0612C52.5781 36.0669 53.6467 35.7216 54.4926 36.5349C47.4687 36.532 40.4458 36.5282 33.4219 36.5253C33.7874 36.3646 34.1521 36.2048 34.5166 36.0441L34.5176 36.045Z" fill="#C0C9DF"/>
<path id="Vector_13" d="M23.972 36.5674C23.9651 37.4691 23.9583 38.3717 23.9505 39.2734L23.7055 39.2867L23.4634 39.2496C23.4294 38.3593 23.3944 37.47 23.3594 36.5797C23.5635 36.5759 23.7677 36.5721 23.972 36.5674Z" fill="#8194BE"/>
<path id="Vector_14" d="M53.9805 33.9141C53.7899 33.9007 53.6003 33.8874 53.4097 33.8751C53.1793 33.6078 52.9906 33.3139 52.8439 32.9943C52.3422 24.6755 52.7651 16.3472 52.6096 8.02361C52.5862 6.77284 52.8672 5.48117 52.2167 4.29413C51.2017 3.3677 49.9376 3.68634 48.7738 3.68443C34.4596 3.66161 20.1463 3.67873 5.83201 3.65685C4.47371 3.65495 3.03956 3.9403 1.81641 3.03099C2.89469 1.74979 4.37065 2.622 5.63658 2.35663C20.2833 2.35853 34.9302 2.36043 49.5769 2.36138C52.4646 2.36138 53.9403 3.80745 54.0038 6.69961C54.4997 13.6202 54.1361 20.5494 54.2002 27.4738C54.2207 29.6167 54.524 31.7845 53.9785 33.9141H53.9805Z" fill="#BEC7DD"/>
<path id="Vector_15" d="M53.9766 33.9147C53.9843 24.8435 53.9931 15.7714 54.0018 6.7002C54.1749 6.70495 54.347 6.70876 54.5191 6.71161C54.521 15.7581 54.522 24.8045 54.5239 33.85C54.3431 33.8814 54.1594 33.9023 53.9766 33.9147Z" fill="#C6CFE2"/>
<path id="Vector_16" d="M1.81671 3.03257C17.708 2.99071 33.6003 2.92985 49.4917 2.9403C50.7839 2.9403 52.2394 2.29923 53.4042 3.44632C52.2355 4.45265 50.7994 4.20249 49.4421 4.2044C35.2561 4.22342 21.0693 4.20629 6.88338 4.22912C5.72147 4.23103 4.46235 3.91525 3.4706 4.85403C2.68011 7.40408 3.17501 10.0122 3.10889 12.5869C3.01945 16.0777 3.08265 19.5722 3.09626 23.0658C3.08848 25.1489 3.07292 27.2309 3.09431 29.313C3.12445 32.3719 3.27808 32.5479 6.41084 32.5517C20.4791 32.5707 34.5463 32.545 48.6147 32.5774C50.2393 32.5812 51.9769 32.1675 53.4237 33.345C53.4878 33.5228 53.483 33.6998 53.409 33.8738C36.1896 33.8557 18.9701 33.8377 1.75059 33.8195C1.24207 30.209 1.42973 26.5918 1.64752 22.9745C1.70392 16.3259 1.76031 9.6783 1.81768 3.02972L1.81671 3.03257Z" fill="#9BB4E1"/>
<path id="Vector_17" d="M1.64632 22.9774C1.68035 26.5928 1.71536 30.2071 1.74938 33.8226C2.52723 34.7841 3.62204 34.396 4.58559 34.4036C10.3057 34.4483 16.0257 34.4445 21.7458 34.4579C21.5105 35.7772 20.4429 35.4918 19.5765 35.4937C13.9927 35.5042 8.40869 35.4642 2.82573 35.5023C1.39644 35.5118 1.16892 34.7737 1.18448 33.6313C1.21851 31.1175 1.21753 28.6026 1.17962 26.0887C1.16697 25.2279 1.48881 24.2682 0.646795 23.5624C0.586512 22.7254 0.971543 22.616 1.64536 22.9784L1.64632 22.9774Z" fill="#C0C9DF"/>
<path id="Vector_18" d="M53.9622 34.9382C53.1601 35.8532 52.073 35.4795 51.1066 35.4851C45.577 35.5204 40.0486 35.5032 34.519 35.5041C33.9639 35.3225 33.4087 35.1398 32.8535 34.9582C32.8535 34.7888 32.8515 34.6215 32.8477 34.4531C39.0004 34.4417 45.1531 34.4369 51.3059 34.4103C52.2393 34.4065 53.1386 34.4636 53.9632 34.9373L53.9622 34.9382Z" fill="#C0C9DF"/>
<path id="Vector_19" d="M32.8531 34.958C32.7753 35.4488 32.61 35.6742 31.9771 35.6619C28.9717 35.603 25.9643 35.6362 22.957 35.6362C22.9541 35.4098 22.9522 35.1834 22.9492 34.958C26.2502 34.958 29.5511 34.958 32.8531 34.958Z" fill="#A3B1D0"/>
<path id="Vector_20" d="M2.35017 3.98582C3.12023 2.97094 4.22963 3.47505 5.16207 3.47314C21.243 3.43605 37.3229 3.44556 53.4038 3.44461C53.4097 13.4118 53.4166 23.378 53.4223 33.3451C37.2413 33.3537 21.0602 33.3309 4.88009 33.4099C2.87715 33.4193 2.02347 32.9742 2.18779 30.8664C2.39198 28.2583 2.3103 25.6284 2.35211 23.0071C2.55435 22.8178 2.79548 22.7312 3.07648 22.7455C3.20191 22.7997 3.32538 22.8548 3.45081 22.9091C3.51013 23.0317 3.56749 23.1535 3.62777 23.2753C3.72209 23.8222 3.62388 24.3672 3.61318 24.9141C3.65208 26.8849 3.47512 28.8576 3.76195 30.8198C3.92627 31.0662 4.09643 31.2992 4.30741 31.5065C5.11637 32.1333 6.06631 32.0126 6.98124 32.0117C21.3159 32.004 35.6516 32.0468 49.9814 31.9878C50.4568 31.9393 50.8914 31.7643 51.2988 31.5313C52.3314 30.7086 52.0553 29.5576 52.0573 28.5076C52.0727 22.0216 52.0766 15.5367 52.0553 9.04882C52.0475 8.71496 52.0484 8.38206 52.0504 8.0482C51.8939 4.99689 51.6985 4.76577 48.6931 4.76101C34.828 4.74104 20.9629 4.7572 7.0989 4.7458C5.80962 4.74484 4.50868 4.86564 3.23399 4.5432C2.90438 4.40813 2.61075 4.22075 2.34919 3.98296L2.35017 3.98582Z" fill="#6E92D3"/>
<path id="Vector_21" d="M2.89509 22.9867C2.71423 22.9943 2.53338 23.0019 2.35351 23.0094C2.35351 16.6681 2.35254 10.3277 2.35156 3.98633C2.52852 3.99108 2.70548 3.99584 2.88244 4.00059C4.12602 10.3287 4.11047 16.6567 2.89509 22.9867Z" fill="#6F93D3"/>
<path id="Vector_22" d="M2.88379 24.1158L3.41564 23.0067C3.83859 21.8795 4.92659 21.7721 5.88334 21.5048C20.2054 17.508 34.4098 13.1251 48.6987 9.01993C49.9559 8.65849 51.4562 7.4781 52.5616 9.38232C52.5597 16.2868 52.5714 23.1855 52.549 30.0852C52.5462 31.0249 52.8864 32.1054 51.7712 32.7522C51.3794 32.7541 50.9876 32.756 50.5957 32.758C49.6341 32.2805 48.6034 32.5182 47.6078 32.5173C33.7048 32.4992 19.8029 32.5135 5.89987 32.4888C4.85951 32.4869 3.63732 32.9187 2.88962 31.7202C2.88865 31.5233 2.88768 31.3255 2.8867 31.1286C3.30382 28.7916 3.30869 26.4537 2.88281 24.1167L2.88379 24.1158Z" fill="#78A2B8"/>
<path id="Vector_23" d="M52.2875 8.88382C46.5577 10.5113 40.8211 12.1139 35.101 13.7709C24.5331 16.8327 13.9748 19.9258 3.41268 23.0066L3.41657 22.9752C2.80014 17.2093 3.32323 11.4253 3.13655 5.65275C3.0928 4.29735 3.9319 4.25835 4.93726 4.26406C7.89792 4.27928 10.8586 4.26977 13.8203 4.26977C25.2011 4.26977 36.5819 4.26977 47.9627 4.26977C50.8044 4.26977 52.4136 5.61216 52.7902 8.29696C52.7921 8.48528 52.7941 8.67362 52.796 8.861C52.6385 9.13874 52.4693 9.14634 52.2875 8.88382Z" fill="#7C9DD7"/>
<path id="Vector_24" d="M52.793 8.29809C52.2797 7.91858 52.2583 7.365 52.2982 6.82285C52.4314 4.99282 51.4358 4.49917 49.743 4.51629C44.4721 4.5667 39.2013 4.53437 33.9294 4.53437C24.6819 4.53437 15.4333 4.59809 6.1867 4.48776C3.99513 4.46208 3.30674 5.07748 3.36799 7.23755C3.51773 12.4803 3.41855 17.7297 3.41953 22.9764L3.157 22.9897L2.89449 22.9878C2.8906 16.6587 2.8867 10.3298 2.88281 4.00172C18.0556 3.99791 33.2284 3.96653 48.4012 4.00837C53.1247 4.02169 52.8796 3.0363 52.793 8.29809Z" fill="#7E9ED8"/>
<path id="Vector_25" d="M2.89062 31.7197C3.98447 32.3761 5.20276 32.241 6.39772 32.241C20.0771 32.241 33.7554 32.2315 47.4347 32.2609C48.4926 32.2628 49.6701 31.8453 50.5967 32.7584C35.4987 32.7642 20.4018 32.7784 5.30485 32.7584C4.40839 32.7574 3.15217 33.2597 2.89062 31.7197Z" fill="#25468F"/>
<path id="Vector_26" d="M52.2888 8.88418C52.4589 8.88134 52.6281 8.87372 52.7973 8.8623C52.8089 16.0397 52.8391 23.2162 52.8119 30.3936C52.8089 31.263 53.337 32.4909 51.7695 32.7534C52.3588 31.7728 52.2956 30.6922 52.2937 29.6137C52.2859 22.7035 52.2888 15.7943 52.2878 8.88418H52.2888Z" fill="#294A91"/>
<path id="Vector_27" d="M2.88281 24.1152C3.75497 26.4522 3.74913 28.7902 2.8867 31.1272C2.88573 28.7892 2.88476 26.4522 2.88281 24.1152Z" fill="#25468F"/>
</g>
</g>
</g>
</g>
<defs>
<clipPath id="clip0_397_1126">
<rect width="56" height="44.6102" fill="white" transform="translate(0 0.695312)"/>
</clipPath>
</defs>
</svg>
