<svg width="44" height="56" viewBox="0 0 44 56" fill="none" xmlns="http://www.w3.org/2000/svg">
<g id="home-appliances.svg" clip-path="url(#clip0_397_1211)">
<g id="Clip path group">
<mask id="mask0_397_1211" style="mask-type:luminance" maskUnits="userSpaceOnUse" x="0" y="0" width="44" height="56">
<g id="clip0_270_565">
<path id="Vector" d="M43.8538 0H0.146484V56H43.8538V0Z" fill="white"/>
</g>
</mask>
<g mask="url(#mask0_397_1211)">
<g id="Group">
<path id="Vector_2" d="M3.8261 51.9182H5.84718C6.37353 51.9182 6.80022 52.3405 6.80022 52.8616V55.0557C6.80022 55.5768 6.37353 55.9991 5.84718 55.9991H3.82738C3.30102 55.9991 2.87305 55.5754 2.87305 55.0545V52.8604C2.87305 52.3393 3.29975 51.9182 3.8261 51.9182Z" fill="#536DA7"/>
<path id="Vector_3" d="M40.1753 51.918H38.1555C37.6279 51.918 37.2012 52.3404 37.2012 52.8614V55.0555C37.2012 55.5765 37.6279 55.999 38.1555 55.999H40.1753C40.7016 55.999 41.1284 55.5765 41.1284 55.0555V52.8614C41.1284 52.3404 40.7016 51.918 40.1753 51.918Z" fill="#536DA7"/>
<path id="Vector_4" d="M2.05386 0H41.9464C42.9992 0 43.8538 0.846033 43.8538 1.88807V52.0708C43.8538 53.1129 42.9992 53.9589 41.9464 53.9589H2.05386C1.00116 53.9589 0.146484 53.1129 0.146484 52.0708V1.88807C0.146484 0.846033 1.00116 0 2.05386 0Z" fill="#CBD3E4"/>
<path id="Vector_5" d="M0.146484 52.0705C0.146484 53.1125 0.999883 53.9585 2.05386 53.9585H41.9464C42.9992 53.9585 43.8538 53.1137 43.8538 52.0705V1.8877L0.146484 52.0705Z" fill="#B9C4DB"/>
<path id="Vector_6" d="M2.05386 0.754883H41.9464C42.9992 0.754883 43.8538 1.60091 43.8538 2.64297V7.03121C43.8538 8.07326 42.9992 8.91928 41.9464 8.91928H2.05386C1.00116 8.91928 0.146484 8.07326 0.146484 7.03121V2.64297C0.146484 1.60091 1.00116 0.754883 2.05386 0.754883Z" fill="#A8B5D2"/>
<path id="Vector_7" d="M35.1956 27.9477C35.1956 35.1612 29.2882 41.0088 22.0011 41.0088C14.714 41.0088 8.80664 35.1612 8.80664 27.9477C8.80664 20.7343 14.714 14.8867 22.0011 14.8867C29.2882 14.8867 35.1956 20.7343 35.1956 27.9477Z" fill="#A8B5D2"/>
<path id="Vector_8" d="M35.1956 26.8159C35.1956 34.0293 29.2882 39.877 22.0011 39.877C14.714 39.877 8.80664 34.0293 8.80664 26.8159C8.80664 19.6025 14.714 13.7549 22.0011 13.7549C29.2882 13.7549 35.1956 19.6025 35.1956 26.8159Z" fill="#EBEEF5"/>
<path id="Vector_9" d="M29.6275 26.8166C29.6275 30.9874 26.2126 34.3677 21.9994 34.3677C17.786 34.3677 14.3711 30.9874 14.3711 26.8166C14.3711 22.646 17.7872 19.2656 21.9994 19.2656C26.2114 19.2656 29.6275 22.646 29.6275 26.8166Z" fill="#88A6DB"/>
<path id="Vector_10" d="M26.242 22.6173C24.0307 20.4296 20.4485 20.4296 18.2383 22.6173L26.242 30.5402C28.4523 28.3524 28.451 24.8052 26.242 22.6173Z" fill="#7C90BC"/>
<path id="Vector_11" d="M2.05386 0H41.9464C42.9992 0 43.8538 0.846033 43.8538 1.88807V6.27506C43.8538 7.31711 42.9992 8.16313 41.9464 8.16313H2.05386C1.00116 8.16313 0.146484 7.31711 0.146484 6.27506V1.88807C0.146484 0.846033 1.00116 0 2.05386 0Z" fill="#536DA7"/>
<path id="Vector_12" d="M28.5981 4.64233C28.5981 5.68438 27.7434 6.52915 26.6907 6.52915H17.3098C16.2557 6.52915 15.4023 5.68438 15.4023 4.64233V3.77479C15.4023 2.73274 16.2571 1.88672 17.3098 1.88672H26.6907C27.7434 1.88672 28.5981 2.73149 28.5981 3.77479V4.64233Z" fill="#B8CAE9"/>
<path id="Vector_13" d="M39.8348 4.426C39.8348 4.94702 39.4068 5.36941 38.8804 5.36941H34.1906C33.663 5.36941 33.2363 4.94702 33.2363 4.426V3.99224C33.2363 3.46995 33.663 3.04883 34.1906 3.04883H38.8804C39.4068 3.04883 39.8348 3.47122 39.8348 3.99224V4.426Z" fill="#B8CAE9"/>
<path id="Vector_14" d="M5.11907 3.04785H9.8102C10.3365 3.04785 10.7633 3.47023 10.7633 3.99125V4.42501C10.7633 4.94605 10.3365 5.36842 9.8102 5.36842H5.11907C4.59271 5.36842 4.16602 4.94605 4.16602 4.42501V3.99125C4.16602 3.47023 4.59271 3.04785 5.11907 3.04785Z" fill="#B8CAE9"/>
</g>
</g>
</g>
</g>
<defs>
<clipPath id="clip0_397_1211">
<rect width="43.7073" height="56" fill="white" transform="translate(0.146484)"/>
</clipPath>
</defs>
</svg>
