<svg width="101" height="40" viewBox="0 0 101 40" fill="none" xmlns="http://www.w3.org/2000/svg">
<g clip-path="url(#clip0_408_5436)">
<path d="M80.5011 0H20.5004C15.2245 0.0433509 10.1795 2.16959 6.46414 5.91561C2.74878 9.66163 0.664063 14.724 0.664062 20C0.664063 25.276 2.74878 30.3384 6.46414 34.0844C10.1795 37.8304 15.2245 39.9566 20.5004 40H80.5011C85.7769 39.9566 90.822 37.8304 94.5373 34.0844C98.2527 30.3384 100.337 25.276 100.337 20C100.337 14.724 98.2527 9.66163 94.5373 5.91561C90.822 2.16959 85.7769 0.0433509 80.5011 0ZM20.5018 36.6661C18.3005 36.6859 16.1171 36.2695 14.0777 35.4408C12.0383 34.6121 10.1833 33.3877 8.6197 31.8381C7.05613 30.2886 5.81502 28.4446 4.96803 26.4127C4.12104 24.3809 3.68496 22.2013 3.68496 20C3.68496 17.7987 4.12104 15.6191 4.96803 13.5873C5.81502 11.5554 7.05613 9.71145 8.6197 8.16189C10.1833 6.61233 12.0383 5.38786 14.0777 4.5592C16.1171 3.73053 18.3005 3.31408 20.5018 3.3339H50.5014" fill="#DC366E"/>
<path d="M14.414 9.55078C13.7582 9.55051 13.1171 9.74474 12.5718 10.1089C12.0264 10.473 11.6013 10.9908 11.3503 11.5966C11.0992 12.2023 11.0334 12.869 11.1613 13.5122C11.2892 14.1553 11.6049 14.7461 12.0686 15.2098C12.5323 15.6735 13.1231 15.9893 13.7663 16.1171C14.4094 16.245 15.0761 16.1792 15.6819 15.9282C16.2877 15.6771 16.8054 15.252 17.1695 14.7066C17.5337 14.1613 17.7279 13.5202 17.7276 12.8644C17.7276 12.4293 17.6419 11.9984 17.4754 11.5963C17.3089 11.1943 17.0648 10.829 16.7571 10.5213C16.4494 10.2136 16.0841 9.96954 15.6821 9.80302C15.28 9.63649 14.8492 9.55078 14.414 9.55078Z" fill="#DC366E"/>
<path d="M19.946 7.3418C19.5092 7.34206 19.0822 7.47185 18.7191 7.71475C18.356 7.95765 18.073 8.30276 17.9061 8.70644C17.7391 9.11013 17.6955 9.55426 17.7809 9.98269C17.8663 10.4111 18.0768 10.8046 18.3858 11.1134C18.6948 11.4222 19.0884 11.6325 19.5169 11.7176C19.9454 11.8028 20.3895 11.7589 20.7931 11.5917C21.1967 11.4245 21.5416 11.1413 21.7843 10.7781C22.0269 10.4148 22.1565 9.98775 22.1565 9.55089C22.1565 9.26068 22.0993 8.9733 21.9882 8.7052C21.8771 8.43709 21.7142 8.1935 21.509 7.98835C21.3037 7.7832 21.06 7.62051 20.7918 7.50957C20.5236 7.39863 20.2362 7.34162 19.946 7.3418Z" fill="#DC366E"/>
</g>
<defs>
<clipPath id="clip0_408_5436">
<rect width="99.9993" height="40" fill="white" transform="translate(0.5)"/>
</clipPath>
</defs>
</svg>
