<svg width="56" height="48" viewBox="0 0 56 48" fill="none" xmlns="http://www.w3.org/2000/svg">
<g id="furniture.svg" clip-path="url(#clip0_397_1093)">
<path id="Vector" d="M8.53775 15.5166C8.37121 14.685 8.21962 13.8535 8.6744 13.0558C9.41207 12.8093 9.85617 12.2328 10.2661 11.635C17.8873 0.525819 35.7538 -1.7868 45.9659 10.7771C46.2915 11.178 46.6801 11.525 47.0409 11.8964C47.7925 12.5438 47.8416 13.5361 48.2612 14.3465C48.5985 15.6668 48.212 16.7617 47.2256 17.6832C46.2926 18.5549 45.5848 19.5367 45.7449 20.9077C45.5784 22.2111 45.983 23.7313 44.3774 24.4941C43.8138 24.5787 43.2896 24.4285 42.7697 24.2423C41.7801 23.8202 40.735 23.8286 39.6888 23.8403C30.8164 23.9418 21.9408 23.6202 13.0738 24.017C10.059 23.6636 12.018 21.1172 11.1789 19.8033C10.8864 18.0207 8.90819 17.2516 8.53882 15.5144L8.53775 15.5166Z" fill="#D17B4F"/>
<path id="Vector_2" d="M11.6415 19.2255C13.0485 20.5225 11.65 22.194 12.2372 23.6C12.5927 23.8053 12.9983 23.9587 13.0955 24.4273C13.1094 24.9933 12.8638 25.4948 12.7069 26.0184C12.4998 28.2242 13.2343 30.3548 13.2289 32.5437C13.0741 33.9666 12.8307 35.417 14.5751 36.1448C14.8687 36.2665 15.1633 36.3607 15.4772 36.4157C24.0368 36.44 32.5878 36.4062 41.1325 36.403C41.8819 36.4157 42.5598 36.2411 43.0476 35.618C43.9593 34.468 44.0447 33.1668 43.7725 31.7947C44.0052 29.572 44.223 27.3525 43.9252 25.1181C43.9284 24.8029 44.0245 24.5183 44.2113 24.2633C45.4219 23.1663 44.6404 21.7148 44.9052 20.4485C47.3798 16.0666 50.3732 15.3366 54.8238 18.029C56.6738 21.5466 56.2404 23.1663 52.679 24.7764C51.2368 25.4292 51.0948 26.486 50.9037 27.7164C50.15 32.5786 49.9152 37.518 48.711 42.3136C47.7299 42.9134 49.1028 44.6304 47.4545 44.915C45.3557 44.7161 43.2217 45.1753 41.1399 44.5871C33.08 44.1322 25.0211 44.3935 16.9707 44.458C15.1559 44.9118 13.3688 43.9142 11.5273 44.3406C11.0319 44.4548 10.258 43.8095 10.4277 43.5387C11.4643 41.8809 8.8381 41.6651 9.24056 40.3744C8.94058 40.7532 9.22028 41.0896 9.25017 41.4387C9.91632 44.1427 11.808 44.7775 14.2986 44.4136C14.6007 44.4834 14.8206 44.6548 14.9594 44.9298C14.968 45.2419 14.8484 45.4873 14.5815 45.6598C13.3143 46.266 11.982 46.1359 10.6497 45.9973C10.5035 45.9793 10.3562 45.9602 10.2099 45.9412C8.52851 45.7201 8.05345 44.5828 7.93282 43.1017C7.79083 41.3551 7.56878 39.6159 7.38196 37.8735C7.62963 36.7722 7.65526 35.673 7.41826 34.6807C7.6275 34.9885 7.48231 35.3123 7.13536 35.5937C6.2888 33.1774 6.31762 30.6236 5.98348 28.13C5.81801 26.8944 5.65361 25.7349 4.7195 24.823C3.79714 23.9798 2.56946 23.6445 1.55636 22.9536C0.711928 22.0279 0.847507 20.9425 1.04501 19.8486C3.69359 15.564 7.33179 15.3503 11.6394 19.2255H11.6415Z" fill="#D78B65"/>
<path id="Vector_3" d="M46.8149 12.4219C44.5731 11.2275 43.481 8.87576 41.458 7.37457C31.9056 0.285443 18.4961 2.14104 11.2187 11.5788C10.8215 12.094 10.766 14.8287 8.67578 13.0556C11.2144 7.13654 15.7632 3.35553 21.7137 1.1011C22.3745 0.850373 23.0845 0.703322 23.0845 0.703322C23.5403 0.586951 24.4904 0.35844 25.7298 0.193404C25.7298 0.193404 26.8967 -0.0150065 28.0229 0.000862306C36.1822 0.115118 42.5021 3.51104 46.7167 10.5356C46.7947 11.1619 47.4299 11.7597 46.8149 12.4219Z" fill="#D78B65"/>
<path id="Vector_4" d="M9.10779 38.5196C10.1006 38.9957 9.10779 41.7061 11.6496 40.6365C12.1557 40.4239 11.9667 41.6384 11.639 42.0996C10.154 44.1943 11.0977 44.1933 12.9809 43.8357C13.9395 43.6537 14.9996 44.0028 16.0148 44.1129C23.1503 43.4326 30.3018 43.9743 37.4448 43.8399C38.8721 43.8135 40.3464 43.5056 41.7438 44.1139C43.6024 44.6513 45.7012 43.1163 47.4317 44.7582C47.7615 45.0237 47.7573 45.285 47.4199 45.541C47.2054 45.6447 46.9918 45.7484 46.7773 45.8521C45.1034 46.27 43.4423 46.3567 41.8078 45.6564C41.4652 45.5262 41.1161 45.4384 40.751 45.394C33.292 45.3136 25.8363 45.394 18.3827 45.3474C17.1667 45.34 15.8761 45.6204 14.7936 44.7561C11.892 45.2797 9.65011 44.5075 8.49609 41.6035C9.24017 40.681 8.36905 39.4442 9.10779 38.5196Z" fill="#D68A63"/>
<path id="Vector_5" d="M11.6403 19.2261C10.1351 19.7201 9.73795 18.0539 8.59141 17.6931C5.5094 16.7241 3.11062 17.5863 1.04492 19.8492C1.75377 16.23 3.05298 15.4789 8.53803 15.517C9.80307 16.5643 11.2858 17.4329 11.6403 19.2261Z" fill="#E0A588"/>
<path id="Vector_6" d="M54.823 18.0287C53.5056 17.8076 52.1872 17.5854 50.8699 17.3654C48.0964 16.902 46.4694 18.618 44.9044 20.4492C44.7507 19.0877 45.5214 18.1673 46.4406 17.3283C47.3544 16.4947 48.2554 15.6642 47.932 14.2477C47.6928 13.7769 47.6437 13.3305 48.0942 12.9443C48.5928 14.6063 49.1522 15.8663 51.4762 15.6198C52.8256 15.477 54.5977 16.0186 54.824 18.0298L54.823 18.0287Z" fill="#E0A78A"/>
<path id="Vector_7" d="M41.7214 45.8418C32.7764 45.8704 23.8315 45.9 14.8865 45.9286C14.7765 45.8609 14.6666 45.7921 14.5566 45.7244C14.6175 45.6112 14.6783 45.4969 14.7381 45.3837L14.7765 45.3457C19.9221 44.713 25.089 45.1214 30.2442 45.0928C34.0543 45.0717 37.8814 44.7373 41.6819 45.3277L41.8442 45.4599C41.8025 45.5869 41.7609 45.7138 41.7193 45.8408L41.7214 45.8418Z" fill="#D68A63"/>
<path id="Vector_8" d="M46.1431 47.8049C44.8844 48.0767 43.6258 48.0503 42.3661 47.8175C41.2943 45.4203 43.3183 45.8784 44.4435 45.7239C45.9968 45.5102 46.9757 45.9906 46.1431 47.8049Z" fill="#1E181A"/>
<path id="Vector_9" d="M46.1413 47.8051C46.1797 46.634 45.8232 45.8003 44.4279 46.068C43.4393 46.2584 42.0953 46.1325 42.3643 47.8167C41.2658 47.4412 42.1455 46.434 41.7227 45.8416C41.8274 45.7337 41.869 45.6067 41.8466 45.4586C43.4895 45.5983 45.1933 44.9804 46.7765 45.8511C46.3313 46.4266 47.2014 47.4232 46.1413 47.803V47.8051Z" fill="#C65C26"/>
<path id="Vector_10" d="M14.8887 45.9291C15.1887 47.8291 14.1073 47.991 12.554 47.9836C11.0221 47.9762 9.90331 47.863 10.2086 45.9428L10.4093 46.0021L10.5449 45.8423C10.8225 45.799 11.0829 45.8423 11.3263 45.9862C12.1003 46.4781 12.8284 46.4517 13.502 45.799C13.8949 45.6752 14.2813 45.6625 14.6571 45.8571L14.735 46.0084L14.8866 45.9291H14.8887Z" fill="#060101"/>
<path id="Vector_11" d="M48.0917 12.9449C48.0384 13.3797 47.985 13.8145 47.9305 14.2483C47.558 13.6389 47.1854 13.0306 46.8139 12.4223C46.9708 11.7844 46.089 11.1994 46.7167 10.5371C47.479 11.1697 47.7971 12.051 48.0928 12.946L48.0917 12.9449Z" fill="#D17D51"/>
<path id="Vector_12" d="M47.4199 45.5412C47.4231 45.2799 47.4274 45.0186 47.4317 44.7583C48.433 44.2389 47.564 42.7589 48.7095 42.3135C48.6743 43.5449 49.1985 44.9942 47.4199 45.5412Z" fill="#D4835A"/>
<path id="Vector_13" d="M7.13477 35.5943C7.19028 35.4081 7.20843 35.1986 7.30985 35.042C7.47638 34.7818 7.78704 34.64 7.80199 35.0854C7.83188 36.0301 8.12118 37.0352 7.38137 37.873C7.29917 37.1134 7.21697 36.3539 7.13477 35.5943Z" fill="#D27E54"/>
<path id="Vector_14" d="M44.2106 24.2636C44.2256 24.4593 44.2362 24.6561 44.2437 24.8529C44.0259 26.4726 42.6339 26.3488 41.6069 26.3678C32.6704 26.5371 23.7319 26.5149 14.7933 26.3943C13.8539 26.3816 12.923 26.2091 12.2344 25.457C12.4447 25.0422 12.655 24.6286 12.8653 24.2139C13.3404 23.357 14.1432 23.285 15.0111 23.2872C24.271 23.3094 33.532 23.2628 42.7919 23.3083C43.1463 23.3104 43.3566 23.5284 43.6171 23.6849C43.8146 23.8785 44.0131 24.0711 44.2106 24.2647V24.2636Z" fill="#E1A98C"/>
<path id="Vector_15" d="M43.6179 23.6847C34.2641 23.6582 24.9092 23.637 15.5553 23.5947C14.5956 23.5905 13.6967 23.7238 12.8662 24.2136C12.6559 24.0094 12.4466 23.8042 12.2363 23.6C13.0744 23.1557 13.954 22.9579 14.9201 22.96C23.7413 22.9801 32.5635 22.9684 41.3857 22.9758C42.1949 22.9758 43.0799 22.8108 43.6179 23.6836V23.6847Z" fill="#D17B4F"/>
<path id="Vector_16" d="M12.2354 25.4566C21.822 25.4577 31.4086 25.4725 40.9951 25.4418C42.0904 25.4386 43.3128 25.8533 44.2437 24.8525C45.6208 27.3482 44.6814 29.8629 44.3109 32.3733C44.3206 33.0504 43.8743 33.3931 43.3448 33.6777C41.8076 34.5156 40.1208 34.3812 38.4587 34.4109C31.1716 34.5399 23.8792 34.1548 16.5974 34.632C15.8811 34.8488 15.152 34.9049 14.4111 34.7832C13.4781 34.5346 12.7585 34.0945 12.8215 32.9795C12.4148 30.4881 11.2522 28.0549 12.2354 25.4566Z" fill="#DFA485"/>
<path id="Vector_17" d="M43.6319 36.0362C43.3928 36.6349 42.9721 37.0444 42.3487 37.2411C35.415 36.5969 28.463 37.1692 21.525 36.9354C19.0537 36.8518 16.5545 37.4167 14.1077 36.672L14.0982 36.6815C13.5344 35.1348 14.634 34.9973 15.7005 34.792C17.2442 34.4958 18.8017 34.5339 20.3603 34.5339C27.3239 34.5318 34.2887 34.4969 41.2513 34.5826C42.1213 34.5932 44.077 33.6135 43.6307 36.0362H43.6319Z" fill="#CF7649"/>
<path id="Vector_18" d="M43.6316 36.0356C43.5334 35.4865 43.3636 35.2157 42.6409 35.2241C34.1357 35.3204 25.6295 35.3384 17.1244 35.4336C16.012 35.4463 14.4897 34.8126 14.0979 36.6809C12.2916 35.9139 11.6649 34.7481 12.8211 32.9792C13.2609 33.3728 13.7008 33.7663 14.1417 34.1588C17.735 34.5386 21.3273 34.071 24.9239 34.1345C30.4185 34.2318 35.9175 34.2276 41.4111 34.1207C42.2811 33.9525 43.0124 33.5198 43.6604 32.9316C43.8771 32.7454 44.0927 32.5592 44.3095 32.373C45.3578 33.8266 44.3287 34.9004 43.6305 36.0356H43.6316Z" fill="#D0784B"/>
<path id="Vector_19" d="M14.1094 36.6719C22.5419 36.6655 30.9756 36.6496 39.4081 36.6687C40.4063 36.6708 41.5165 36.3249 42.3503 37.2421C33.6882 37.3447 25.0261 37.4621 16.363 37.5224C15.5741 37.5277 14.672 37.441 14.1094 36.6719Z" fill="#CE7344"/>
<path id="Vector_20" d="M41.6839 45.328C32.7154 45.3344 23.7459 45.3396 14.7774 45.346C14.7635 45.1482 14.7678 44.9514 14.7913 44.7557C22.6783 44.7536 30.5654 44.7335 38.4524 44.7715C39.5359 44.7768 40.7551 44.3198 41.6839 45.3291V45.328Z" fill="#CE7344"/>
<path id="Vector_21" d="M41.7426 44.1136C33.1659 44.1136 24.5903 44.1136 16.0137 44.1125C24.5903 43.099 33.1659 43.099 41.7426 44.1136Z" fill="#D58861"/>
<path id="Vector_22" d="M10.9605 45.9961C10.8131 45.9686 10.6733 45.9188 10.543 45.8448C11.8433 44.7911 13.3422 45.5443 14.7396 45.3835C14.7652 45.5507 14.7385 45.7094 14.6584 45.8575C14.2912 45.8956 13.9229 45.9347 13.5557 45.9739C12.7016 47.2032 11.8348 47.1481 10.9594 45.9961H10.9605Z" fill="#CE7344"/>
<path id="Vector_23" d="M7.71755 28.6172V32.5315C6.85711 31.0599 7.47522 29.8698 7.71755 28.6172Z" fill="#D88F69"/>
<path id="Vector_24" d="M49.6208 29.9985C49.0977 28.783 49.1703 27.7462 49.5599 26.5127C50.0756 27.7325 50.004 28.7692 49.6208 29.9985Z" fill="#D78D67"/>
<path id="Vector_25" d="M9.1071 38.5186C8.95337 39.5565 9.52878 40.7371 8.4954 41.6035C8.91921 40.6176 7.64243 39.3015 9.1071 38.5186Z" fill="#D78D67"/>
<path id="Vector_26" d="M48.3263 38.6228C47.8822 37.9753 47.9355 37.3437 48.2996 36.4932C48.765 37.3056 48.7928 37.933 48.3263 38.6228Z" fill="#D88F69"/>
<path id="Vector_27" d="M10.9619 45.9958C11.8309 46.4698 12.6956 46.3883 13.5571 45.9736C13.6447 46.5132 14.1187 47.2304 12.9839 47.2135C12.0711 47.1998 11.0313 47.3881 10.9609 45.9969L10.9619 45.9958Z" fill="#C8632F"/>
<path id="Vector_28" d="M43.6604 32.9316C43.5696 33.6552 43.2173 34.1333 42.4359 34.2063C33.6265 34.6158 24.8182 34.6962 16.0098 34.1661C16.9247 33.1558 18.1407 33.5695 19.2274 33.5631C25.6423 33.5261 32.0572 33.5124 38.471 33.5652C40.2442 33.5801 41.964 33.4171 43.6604 32.9316Z" fill="#E1A98C"/>
<path id="Vector_29" d="M16.0108 34.1655C24.8191 34.1793 33.6274 34.192 42.4358 34.2057C42.3578 34.2734 42.2831 34.3951 42.1998 34.4004C32.9197 35.014 23.6395 35.0827 14.3614 34.3708C14.2835 34.3644 14.2152 34.2322 14.1426 34.1592C14.765 34.1613 15.3884 34.1634 16.0108 34.1655Z" fill="#DD9F7F"/>
</g>
<defs>
<clipPath id="clip0_397_1093">
<rect width="56" height="48" fill="white"/>
</clipPath>
</defs>
</svg>
