<svg width="47" height="46" viewBox="0 0 47 46" fill="none" xmlns="http://www.w3.org/2000/svg">
<path d="M17.5986 10.0868C20.3844 10.0868 22.6425 7.82947 22.6425 5.04385C22.6426 2.25736 20.3844 0 17.5986 0C14.8114 0 12.5547 2.25736 12.5547 5.04385C12.5548 7.82938 14.8114 10.0868 17.5986 10.0868Z" fill="#DC366E"/>
<path d="M21.0204 35.0969H11.0255C11.0255 29.9132 11.0255 24.8105 11.0255 19.6377C11.0255 18.6848 10.253 17.9121 9.29986 17.9121C8.34693 17.9121 7.57422 18.6848 7.57422 19.6377C7.57422 35.9841 7.57422 29.2493 7.57422 44.2746C7.57422 45.2274 8.34693 46.0002 9.29986 46.0002C10.2529 46.0002 11.0255 45.2275 11.0255 44.2746V38.5482H19.2948V44.2746C19.2948 45.2274 20.0675 46.0002 21.0204 46.0002C21.9736 46.0002 22.7461 45.2275 22.7461 44.2746V36.8225C22.7461 35.8696 21.9736 35.0969 21.0204 35.0969Z" fill="#DC366E"/>
<path d="M37.6967 15.3337H34.6339C34.6044 15.0725 34.5363 14.8113 34.4056 14.5654C33.8477 13.512 32.5391 13.1118 31.4893 13.6713L24.7402 17.2524L21.0133 13.657L22.798 14.6714C22.4493 12.6222 20.6772 11.0576 18.5286 11.0576H16.6748C14.2766 11.0576 12.332 13.0023 12.332 15.4004V30.1449C12.332 31.4795 13.0751 32.6289 14.1629 33.2381C14.5817 33.5304 15.0897 33.7049 15.6401 33.7049H24.2683V43.4116C24.2683 44.8415 25.4267 46 26.8568 46C28.2866 46 29.4453 44.8414 29.4453 43.4116V31.1164C29.4453 29.6865 28.2867 28.5279 26.8568 28.5279H22.8712V23.7588C22.391 23.5287 21.9713 23.1648 21.6738 22.6861L18.0178 16.7627L22.872 21.4442C23.2839 21.8411 23.8232 22.0483 24.37 22.0483C24.7146 22.0483 25.0619 21.9658 25.3804 21.7964L30.9271 18.8524C31.0944 22.8537 31.6747 32.4649 33.4171 35.7638L33.4188 44.7058C33.4188 45.4204 33.9984 46.0001 34.713 46.0001C35.4276 46.0001 36.0072 45.4205 36.0072 44.7058L36.0055 35.7694C37.7923 32.3958 38.3591 22.3654 38.5106 18.5533C39.0455 18.26 39.4223 17.7124 39.4223 17.0594C39.4224 16.1065 38.6497 15.3337 37.6967 15.3337ZM34.7164 34.748C34.7149 34.748 34.714 34.7472 34.714 34.7472C34.7123 34.7472 34.7114 34.748 34.7097 34.748C34.1967 33.4909 33.6665 30.444 33.2647 27.0198H36.1608C35.7586 30.444 35.2296 33.4909 34.7164 34.748ZM36.3494 25.2941H33.076C32.8501 23.0603 32.6876 20.7743 32.6236 18.785H36.8019C36.7378 20.7743 36.5752 23.0603 36.3494 25.2941Z" fill="#DC366E"/>
</svg>
