<svg width="56" height="52" viewBox="0 0 56 52" fill="none" xmlns="http://www.w3.org/2000/svg">
<g id="orthopedic-devices.svg" clip-path="url(#clip0_397_1285)">
<g id="Clip path group">
<mask id="mask0_397_1285" style="mask-type:luminance" maskUnits="userSpaceOnUse" x="0" y="0" width="56" height="52">
<g id="clip0_270_566">
<path id="Vector" d="M56 0.592773H0V51.4076H56V0.592773Z" fill="white"/>
</g>
</mask>
<g mask="url(#mask0_397_1285)">
<g id="Group">
<path id="Vector_2" fill-rule="evenodd" clip-rule="evenodd" d="M15.5584 12.5059H13.7395C13.4151 12.5059 13.1041 12.6347 12.8761 12.8626C12.6465 13.0921 12.5176 13.4029 12.5176 13.7272V26.2095C12.5176 26.5338 12.6465 26.8446 12.8761 27.0741C13.1056 27.302 13.4151 27.4308 13.7395 27.4308H15.5584V12.5059Z" fill="#E9C1AD"/>
<path id="Vector_3" d="M34.4569 20.9527C33.9578 20.9527 33.5535 20.5486 33.5535 20.0498V16.0335C33.5535 15.8144 33.4646 15.5997 33.309 15.4443C33.152 15.2874 32.9433 15.2015 32.7196 15.2015H15.7824C15.2832 15.2015 14.8789 14.7974 14.8789 14.2986C14.8789 13.7996 15.2832 13.3955 15.7824 13.3955H32.7196C33.4261 13.3955 34.0882 13.6694 34.5873 14.1682C35.079 14.6598 35.3605 15.3407 35.3605 16.035V20.0512C35.3605 20.55 34.9562 20.9543 34.4569 20.9543V20.9527Z" fill="#B1BFCE"/>
<path id="Vector_4" fill-rule="evenodd" clip-rule="evenodd" d="M31.5995 13.7746C31.5995 13.5495 31.5107 13.3349 31.3508 13.175C31.1922 13.0166 30.976 12.9277 30.7508 12.9277H17.0811C16.856 12.9277 16.6398 13.0166 16.4813 13.175C16.3227 13.3349 16.2324 13.5495 16.2324 13.7746V15.0639C16.2324 15.2904 16.3213 15.5051 16.4813 15.665C16.6398 15.8233 16.856 15.9122 17.0811 15.9122H30.7523C30.9774 15.9122 31.1938 15.8233 31.3522 15.665C31.5107 15.5051 31.601 15.2904 31.601 15.0639V13.7746H31.5995Z" fill="#DB9876"/>
<path id="Vector_5" d="M39.5021 34.4629H15.7812V36.8078H39.5021V34.4629Z" fill="#B1BFCE"/>
<path id="Vector_6" d="M15.7818 36.5386C15.2826 36.5386 14.8783 36.1345 14.8783 35.6355V3.12245H7.5539C7.05474 3.12245 6.65039 2.7183 6.65039 2.21942C6.65039 1.72055 7.05474 1.31641 7.5539 1.31641H15.7818C16.2809 1.31641 16.6853 1.72055 16.6853 2.21942V35.6355C16.6853 36.1345 16.2809 36.5386 15.7818 36.5386Z" fill="#B1BFCE"/>
<path id="Vector_7" d="M39.5031 46.8712C39.004 46.8712 38.5996 46.4669 38.5996 45.9681V26.155C38.5996 25.6561 39.004 25.252 39.5031 25.252C40.0023 25.252 40.4066 25.6561 40.4066 26.155V29.2815H40.5356C42.6166 29.2815 44.4798 30.676 45.0649 32.673L48.3487 43.8763L46.6127 44.3841L43.329 33.1807C42.9676 31.9491 41.8197 31.089 40.5356 31.089H40.4066V45.9681C40.4066 46.4669 40.0023 46.8712 39.5031 46.8712Z" fill="#B1BFCE"/>
<path id="Vector_8" fill-rule="evenodd" clip-rule="evenodd" d="M43.3922 26.278C43.3922 25.3454 42.6353 24.5889 41.7022 24.5889H30.9297V27.7228H42.5376C42.7643 27.7228 42.9819 27.634 43.1419 27.4727C43.3019 27.3113 43.3922 27.0952 43.3922 26.8687V26.278Z" fill="#E9C1AD"/>
<path id="Vector_9" fill-rule="evenodd" clip-rule="evenodd" d="M17.3868 6.20988C17.3868 6.02632 17.3142 5.85016 17.1838 5.72136C17.0535 5.5911 16.8772 5.51855 16.6935 5.51855H15.0642C14.8806 5.51855 14.7044 5.5911 14.574 5.72136C14.4437 5.85016 14.3711 6.02632 14.3711 6.20988V30.1843H17.3852V6.20988H17.3868Z" fill="#859BB2"/>
<path id="Vector_10" d="M15.7814 49.2767C15.6777 49.2767 15.5918 49.1923 15.5918 49.0873V22.1818C15.5918 22.0781 15.6762 21.9922 15.7814 21.9922C15.8865 21.9922 15.9709 22.0766 15.9709 22.1818V49.0873C15.9709 49.1909 15.8865 49.2767 15.7814 49.2767Z" fill="#ECEFF3"/>
<path id="Vector_11" fill-rule="evenodd" clip-rule="evenodd" d="M15.7818 19.8604C24.4926 19.8604 31.5637 26.929 31.5637 35.635C31.5637 44.3411 24.4926 51.4083 15.7818 51.4083C7.0711 51.4083 0 44.3411 0 35.635C0 26.929 7.07258 19.8604 15.7818 19.8604ZM15.7818 22.1801C23.2114 22.1801 29.2427 28.2095 29.2427 35.6336C29.2427 43.0575 23.2114 49.0856 15.7818 49.0856C8.35231 49.0856 2.32099 43.0591 2.32099 35.635C2.32099 28.211 8.35231 22.1816 15.7818 22.1816V22.1801Z" fill="#536B9C"/>
<path id="Vector_12" d="M42.9075 49.8146C45.0332 47.69 45.0332 44.2454 42.9075 42.1208C40.7818 39.9962 37.3353 39.9962 35.2096 42.1208C33.0838 44.2454 33.0838 47.69 35.2096 49.8146C37.3353 51.9391 40.7818 51.9391 42.9075 49.8146Z" fill="#536B9C"/>
</g>
</g>
</g>
</g>
<defs>
<clipPath id="clip0_397_1285">
<rect width="56" height="50.8148" fill="white" transform="translate(0 0.592773)"/>
</clipPath>
</defs>
</svg>
