<svg width="47" height="46" viewBox="0 0 47 46" fill="none" xmlns="http://www.w3.org/2000/svg">
<g clip-path="url(#clip0_405_5390)">
<path d="M45.6843 9.92316H44.7121V7.38545C44.7121 6.93044 44.3432 6.56152 43.8881 6.56152H3.1201C2.66508 6.56152 2.29617 6.93044 2.29617 7.38545V9.91492H1.32393C0.868915 9.91492 0.5 10.2838 0.5 10.7388V17.8329C0.5 18.2879 0.868915 18.6568 1.32393 18.6568H2.30441C2.53521 30.3628 12.2119 39.6653 23.9179 39.4345C35.2989 39.2101 44.4713 30.0378 44.6956 18.6568H45.6761C46.1311 18.6568 46.5 18.2879 46.5 17.8329V10.7471C46.5 10.2953 46.1361 9.92769 45.6843 9.92316ZM2.14786 17.0172V11.571H11.4995C13.0033 11.571 14.2226 12.7902 14.2226 14.2941C14.2226 15.798 13.0033 17.0172 11.4995 17.0172H2.14786ZM16.649 36.6185V36.6267C10.8735 34.4484 6.45794 29.6818 4.72676 23.7569C9.3969 21.6714 14.8736 23.7666 16.9591 28.4368C18.1324 31.0642 18.0178 34.0876 16.649 36.6185ZM30.3592 36.6185L30.351 36.6267C27.8958 32.1502 29.5344 26.531 34.0109 24.0758C36.5648 22.675 39.6297 22.56 42.2815 23.7652C40.5459 29.6839 36.1309 34.4435 30.3592 36.6185ZM42.6855 22.1321C37.1398 19.8206 30.7666 22.4327 28.4407 27.9759C27.2008 30.9308 27.3239 34.2816 28.7773 37.1376C25.3315 38.1071 21.685 38.1071 18.2392 37.1376C20.9706 31.7726 18.8357 25.2092 13.4708 22.4778C10.6198 21.0262 7.27507 20.9005 4.32303 22.1338C4.09676 20.9908 3.97266 19.83 3.95227 18.6651H11.4995C13.9135 18.6651 15.8704 16.7081 15.8704 14.2941C15.8704 11.8801 13.9135 9.92316 11.4995 9.92316H3.94403V8.20938H43.0642V9.91492H35.5088C33.0948 9.91492 31.1378 11.8719 31.1378 14.2859C31.1378 16.6999 33.0948 18.6568 35.5088 18.6568H43.056C43.0368 19.824 42.9128 20.9872 42.6855 22.1321ZM35.5088 17.0254C34.0049 17.0254 32.7857 15.8062 32.7857 14.3023C32.7857 12.7985 34.0049 11.5793 35.5088 11.5793H44.8604L44.8851 17.0254H35.5088Z" fill="#DC366E"/>
</g>
<defs>
<clipPath id="clip0_405_5390">
<rect width="46" height="46" fill="white" transform="translate(0.5)"/>
</clipPath>
</defs>
</svg>
