<svg width="34" height="56" viewBox="0 0 34 56" fill="none" xmlns="http://www.w3.org/2000/svg">
<g id="recycling.svg" clip-path="url(#clip0_397_1326)">
<g id="Clip path group">
<mask id="mask0_397_1326" style="mask-type:luminance" maskUnits="userSpaceOnUse" x="0" y="0" width="34" height="56">
<g id="clip0_270_571">
<path id="Vector" d="M33.546 0H0.455078V56H33.546V0Z" fill="white"/>
</g>
</mask>
<g mask="url(#mask0_397_1326)">
<g id="Group">
<path id="Vector_2" d="M30.0489 49.3887H4.27734V52.5363H30.0489V49.3887Z" fill="#131616"/>
<path id="Vector_3" d="M29.2421 3.45347C28.7522 1.42517 26.9653 0 24.9135 0H9.58273C7.53097 0 5.74416 1.42595 5.25425 3.45347L2.99414 12.8105H31.5022L29.2421 3.45347Z" fill="#DB9876"/>
<path id="Vector_4" d="M2.26679 12.8105H31.7343C32.7345 12.8105 33.546 13.6373 33.546 14.6545V18.3561H0.455078V14.6545C0.455078 13.6365 1.26733 12.8105 2.26679 12.8105Z" fill="#DB9876"/>
<path id="Vector_5" d="M17.3407 18.3555H2.99414L7.34904 52.1726C7.44038 52.8816 8.03447 53.4118 8.73651 53.4118H25.7598C26.4626 53.4118 27.0559 52.8816 27.1473 52.1726L31.5022 18.3555H17.3407Z" fill="#DB9876"/>
<path id="Vector_6" d="M25.5694 8.81063L24.403 3.10145C24.1939 2.07885 23.3093 1.34668 22.2833 1.34668H11.7188C10.6929 1.34668 9.80743 2.07962 9.59909 3.10145L8.4328 8.81063C8.15348 10.1789 9.17937 11.4628 10.5525 11.4628H23.4496C24.8228 11.4628 25.8494 10.1782 25.5694 8.81063Z" fill="#D17B4F"/>
<path id="Vector_7" d="M6.41676 46.5322H2.99414V55.9999H6.41676V46.5322Z" fill="#313738"/>
<path id="Vector_8" d="M3.01365 47.8271C2.29501 48.3488 1.7832 49.6918 1.7832 51.2661C1.7832 52.8403 2.29501 54.1833 3.01365 54.705V47.8271Z" fill="#DB9876"/>
<path id="Vector_9" d="M28.162 55.9988L31.5846 55.9842L31.5457 46.5166L28.123 46.5312L28.162 55.9988Z" fill="#313738"/>
<path id="Vector_10" d="M31.5312 47.8125C32.2521 48.3311 32.7692 49.6717 32.776 51.2459C32.7829 52.8202 32.2763 54.1654 31.5599 54.6902L31.5312 47.8125Z" fill="#DB9876"/>
<path id="Vector_11" d="M17.3407 18.3555H2.99414L3.11719 19.3096C9.68086 20.4636 16.6031 19.5485 22.9034 21.7512C24.5279 22.319 26.2022 23.2057 26.9284 24.7899C27.3005 25.602 27.3812 26.517 27.4432 27.4113C27.8372 33.162 27.6274 38.9548 26.8166 44.6594C26.5977 46.2021 26.3093 47.8017 25.3974 49.054C23.7057 51.3774 20.4953 51.7754 17.657 51.9037C15.3878 52.0059 13.1088 52.0619 10.8502 51.8161C9.73672 51.6947 8.59912 51.4888 7.64344 50.8941C7.46605 50.7834 7.29695 50.6598 7.13767 50.5238L7.34979 52.1734C7.44114 52.8824 8.03522 53.4126 8.73726 53.4126H25.7605C26.4633 53.4126 27.0567 52.8824 27.1481 52.1734L31.503 18.3562L17.3407 18.3555Z" fill="#D38158"/>
<path id="Vector_12" d="M22.9095 33.4487C22.8604 33.3419 22.6067 33.242 22.264 33.1567C22.3018 32.5952 22.2202 31.7224 21.8194 30.3855C21.4442 29.1348 19.2762 27.1649 18.7311 26.6854C18.7326 26.6186 18.7251 26.5602 18.7063 26.5133C18.5191 26.0539 16.4688 25.6475 16.2613 25.9502C16.1948 26.047 16.2371 26.3228 16.3367 26.67C15.8346 26.879 15.0775 27.3792 14.023 28.5293C13.019 29.6241 12.3887 33.265 12.3887 33.265C12.3887 33.265 12.4098 33.226 12.4491 33.156C12.2339 33.6508 12.8748 35.5092 13.2228 35.5393C13.3383 35.5492 13.552 35.3741 13.7973 35.1128C14.226 35.4508 15.03 35.868 16.536 36.2222C17.9695 36.5595 21.3831 35.2957 21.3831 35.2957H21.3762C21.95 35.0829 23.0483 33.7499 22.9095 33.4487ZM17.2191 34.8608C16.0975 34.5227 15.3592 34.0433 14.9085 33.6607C15.0859 33.3834 15.2044 33.159 15.2119 33.0684C15.2391 32.7304 12.8303 32.635 12.4785 33.1023L12.477 33.1045C12.7782 32.5682 13.8034 30.8143 14.8398 29.8131C15.6883 28.9934 16.465 28.5824 17.0161 28.3765C17.1632 28.6715 17.2946 28.8881 17.3687 28.9404C17.6087 29.1095 18.6247 27.5375 18.7244 26.7792C19.055 27.3607 19.994 29.0864 20.3187 30.4639C20.5626 31.4987 20.558 32.3193 20.4825 32.9024C20.1503 32.884 19.8944 32.891 19.8122 32.9301C19.5253 33.0684 20.5294 35.0414 21.1212 35.2972C20.4334 35.2972 18.5341 35.2565 17.2191 34.8608Z" fill="white"/>
<path id="Vector_13" d="M12.3301 38.9238H13.0163C13.2019 38.9238 13.3446 38.9385 13.4442 38.9684C13.5439 38.9984 13.6186 39.0407 13.6693 39.0967C13.719 39.1528 13.753 39.2204 13.7711 39.3003C13.7893 39.3802 13.7976 39.5032 13.7976 39.6699V39.9019C13.7976 40.0717 13.7802 40.1962 13.7455 40.2737C13.7108 40.3513 13.6474 40.4113 13.5552 40.4535C13.4632 40.495 13.3424 40.5158 13.1936 40.5158H13.011V41.589H12.3301V38.9238ZM13.011 39.3802V40.0586C13.0306 40.0594 13.0472 40.0601 13.0608 40.0601C13.1235 40.0601 13.1665 40.0447 13.1906 40.0133C13.2148 39.9817 13.2269 39.9172 13.2269 39.8182V39.5991C13.2269 39.5078 13.2125 39.4486 13.1846 39.4217C13.1567 39.394 13.0993 39.3802 13.011 39.3802Z" fill="white"/>
<path id="Vector_14" d="M14.6731 38.9238V41.0559H15.0875V41.589H13.9922V38.9238H14.6731Z" fill="white"/>
<path id="Vector_15" d="M16.5133 38.9238L16.9028 41.589H16.2067L16.1706 41.1096H15.9267L15.886 41.589H15.1816L15.5288 38.9238H16.5133ZM16.1523 40.6379C16.1177 40.3359 16.0838 39.9626 16.049 39.5184C15.9795 40.0287 15.9357 40.402 15.9184 40.6379H16.1523Z" fill="white"/>
<path id="Vector_16" d="M18.4608 39.7304H17.8282V39.533C17.8282 39.4408 17.8199 39.3824 17.8041 39.3571C17.7882 39.3316 17.7611 39.3194 17.7233 39.3194C17.6826 39.3194 17.6516 39.3364 17.6304 39.3701C17.6093 39.4039 17.5987 39.4561 17.5987 39.5254C17.5987 39.6144 17.6108 39.6813 17.6342 39.7266C17.6569 39.7719 17.721 39.8257 17.8268 39.8895C18.1302 40.0724 18.3212 40.2229 18.3996 40.3404C18.4782 40.458 18.5175 40.647 18.5175 40.9082C18.5175 41.0981 18.4956 41.2378 18.4518 41.3284C18.408 41.4184 18.3234 41.4936 18.1989 41.5551C18.0736 41.6158 17.9278 41.6466 17.7619 41.6466C17.5799 41.6466 17.4236 41.6112 17.2953 41.5414C17.1662 41.4714 17.0816 41.3815 17.0424 41.2732C17.0024 41.1649 16.9828 41.0104 16.9828 40.8107V40.6362H17.6154V40.9605C17.6154 41.0604 17.6244 41.1249 17.6417 41.1533C17.6599 41.1817 17.6908 41.1963 17.7362 41.1963C17.7815 41.1963 17.8154 41.1779 17.8373 41.1418C17.8592 41.1057 17.8706 41.0519 17.8706 40.9805C17.8706 40.8237 17.8494 40.7208 17.807 40.6723C17.764 40.624 17.6576 40.5433 17.4885 40.4304C17.3195 40.3158 17.207 40.2336 17.1518 40.1814C17.0967 40.1299 17.0514 40.0585 17.0153 39.9671C16.979 39.8756 16.9609 39.7597 16.9609 39.6183C16.9609 39.4139 16.9865 39.2648 17.0378 39.1704C17.0892 39.0758 17.1722 39.0021 17.2862 38.9491C17.4002 38.8961 17.5384 38.8691 17.7006 38.8691C17.8773 38.8691 18.0282 38.8984 18.1528 38.9568C18.2774 39.0151 18.3597 39.0882 18.4004 39.1765C18.4412 39.2648 18.4608 39.4146 18.4608 39.6267V39.7319V39.7304Z" fill="white"/>
<path id="Vector_17" d="M20.1019 38.9238V39.457H19.6973V41.589H19.0164V39.457H18.6133V38.9238H20.1019Z" fill="white"/>
<path id="Vector_18" d="M20.9387 38.9238V41.589H20.2578V38.9238H20.9387Z" fill="white"/>
<path id="Vector_19" d="M22.8028 40.0851H22.1219V39.6219C22.1219 39.4873 22.1143 39.4028 22.1 39.3699C22.0857 39.3368 22.0532 39.3199 22.0041 39.3199C21.9482 39.3199 21.9128 39.3398 21.8977 39.3806C21.8825 39.4213 21.875 39.5089 21.875 39.6441V40.8817C21.875 41.0117 21.8825 41.0962 21.8977 41.1354C21.9128 41.1745 21.9468 41.1945 21.9996 41.1945C22.0524 41.1945 22.0834 41.1745 22.0993 41.1354C22.1151 41.0954 22.1227 41.0032 22.1227 40.8564V40.5214H22.8035V40.6252C22.8035 40.901 22.7846 41.097 22.7462 41.2121C22.7076 41.3275 22.6231 41.4289 22.4926 41.5157C22.3612 41.6025 22.2003 41.6463 22.0079 41.6463C21.8155 41.6463 21.644 41.6094 21.5142 41.5357C21.3852 41.4619 21.2991 41.3604 21.2567 41.2298C21.2145 41.1 21.1934 40.9041 21.1934 40.6429V39.8638C21.1934 39.6718 21.2002 39.5281 21.213 39.432C21.2258 39.336 21.2644 39.2439 21.3285 39.1547C21.3927 39.0656 21.4818 38.9957 21.5958 38.9449C21.7097 38.8943 21.8403 38.8682 21.9883 38.8682C22.189 38.8682 22.3543 38.9072 22.4849 38.9864C22.6156 39.0656 22.7009 39.1639 22.7424 39.2814C22.7831 39.399 22.8035 39.5827 22.8035 39.8315L22.8028 40.0851Z" fill="white"/>
</g>
</g>
</g>
</g>
<defs>
<clipPath id="clip0_397_1326">
<rect width="33.0909" height="56" fill="white" transform="translate(0.455078)"/>
</clipPath>
</defs>
</svg>
