<svg width="56" height="48" viewBox="0 0 56 48" fill="none" xmlns="http://www.w3.org/2000/svg">
<g id="clothing-shoes.svg" clip-path="url(#clip0_397_1072)">
<path id="Vector" d="M56.0002 25.826C55.7623 27.7228 52.4183 29.9213 50.6177 29.7434C49.833 29.6664 45.0058 23.6329 41.3022 18.8616C42.0597 21.8479 42.6357 25.6838 42.1956 28.9132C41.7837 31.9158 41.3197 34.825 40.6524 36.264C35.3133 39.3675 19.6656 39.6984 15.3024 36.264C13.5223 32.1155 13.1104 23.2564 14.6754 18.7726C10.9631 23.5559 6.07827 29.6652 5.28931 29.7444C3.76571 29.8942 1.13802 28.3447 0.221908 26.7158C-0.975663 23.8218 2.867 17.8731 7.10957 10.7741C12.4541 3.0327 17.9573 1.2726 23.08 0.754991C23.3658 1.74681 24.7743 5.37117 27.9779 5.09337C31.0067 5.32885 32.4216 2.21233 32.8508 0.833121L32.8279 0.753906C38.0552 1.31601 43.3508 2.96107 48.7975 10.7719C52.1358 16.3517 55.32 20.9613 56.0002 25.825V25.826Z" fill="#D9926E"/>
<path id="Vector_2" d="M25.131 40.418C21.8838 42.2996 18.1487 48.7117 14.1714 45.8643C11.2806 43.5888 19.2768 37.8332 18.0955 33.3114C17.6434 31.1303 15.8079 28.4413 14.7745 26.8332C16.373 25.8435 19.5963 23.8502 21.1981 22.8594C21.7186 25.1653 22.5576 28.258 23.9518 30.3273C24.5822 31.2193 25.1766 31.6783 25.9786 32.1698C26.9479 32.7678 27.7597 33.1845 28.1074 34.9576C28.6552 37.7637 27.1099 38.9542 25.131 40.418Z" fill="#F0D5C7"/>
<path id="Vector_3" d="M25.1294 40.417C24.7675 37.651 24.8142 34.7406 25.9759 32.1699C26.9463 32.7668 27.756 33.1835 28.1048 34.9566C28.6536 37.7627 27.1072 38.9531 25.1294 40.417Z" fill="#D38158"/>
<path id="Vector_4" d="M20.5018 44.3791C18.4632 46.1761 16.3885 47.4012 14.388 46.0199C12.7284 45.0248 13.6566 43.1453 15.2214 40.9121C17.2905 41.4591 19.1814 42.6917 20.5018 44.3781V44.3791Z" fill="#D9926E"/>
<path id="Vector_5" d="M20.9607 25.3348C19.7881 26.0314 14.235 29.0209 13.9492 26.434C14.0492 25.9966 14.6099 25.835 15.0892 25.7135C16.0596 25.4715 16.9573 25.134 17.8071 24.726C18.6742 24.3093 19.4936 23.8166 20.2869 23.2687C20.839 22.8878 21.6486 22.3842 22.1344 23.2914C22.594 24.1455 21.5932 24.9343 20.9607 25.3348Z" fill="#D9926E"/>
<path id="Vector_6" d="M20.5011 44.3803C18.3918 46.2565 16.2021 47.4762 14.1699 45.8637C15.6891 44.8013 17.4257 44.0082 18.7048 42.6191C19.3753 43.1248 19.9827 43.7183 20.5011 44.3803Z" fill="#D38158"/>
<path id="Vector_7" d="M20.9598 25.3348C19.5558 26.2245 17.9495 26.8659 16.2695 27.3152C17.0617 26.7563 18.6842 25.8382 17.8062 24.726C18.6733 24.3093 19.4927 23.8166 20.286 23.2687C20.8381 22.8878 21.6476 22.3842 22.1335 23.2914C22.5931 24.1455 21.5923 24.9343 20.9598 25.3348Z" fill="#D38158"/>
<path id="Vector_8" d="M22.1262 26.3075C21.4698 26.1827 21.0732 27.8321 20.8036 28.2033C20.7276 28.3682 20.5363 28.3899 20.3864 28.3204C19.868 28.2488 18.4205 27.3352 18.0956 28.1273L17.3555 29.6801C17.2174 30.0078 16.7263 29.6996 16.5078 29.6551C16.5818 29.7898 16.66 29.9319 16.7383 30.0783C17.0642 30.2314 17.487 30.1804 17.6521 29.8211L18.3923 28.2683C18.5161 27.7974 20.2571 28.7621 20.5657 28.6861C21.3862 28.799 21.5513 26.3357 22.2457 26.671L22.1251 26.3075H22.1262Z" fill="#DB9774"/>
<path id="Vector_9" d="M23.6331 29.8333C23.5701 29.7281 23.5125 29.6261 23.4516 29.5176C22.7289 29.3157 22.3508 31.0129 22.0628 31.4046C22.002 31.5305 21.8585 31.5913 21.7269 31.5479L20.0914 31.0129C19.2895 30.696 18.9243 32.4561 18.6157 32.8815C18.506 33.1278 18.2093 33.0106 18.0234 32.9412C18.0516 33.0649 18.0745 33.1886 18.094 33.3112C19.2243 33.8256 19.2872 31.142 19.9894 31.3265C20.5109 31.3938 22.0324 32.3454 22.3606 31.5456L23.1027 29.9929C23.2093 29.7443 23.5103 29.8648 23.6951 29.9332C23.6733 29.9006 23.6538 29.867 23.6342 29.8323L23.6331 29.8333Z" fill="#DB9774"/>
<path id="Vector_10" d="M39.4044 41.0497C36.1573 42.9315 32.4222 49.3435 28.4448 46.4961C25.554 44.2206 33.5502 38.465 32.3689 33.9432C31.9168 31.7621 30.0814 29.0731 29.0479 27.465C30.6464 26.4753 33.8697 24.4819 35.4715 23.4912C35.992 25.7971 36.831 28.8897 38.2252 30.9591C38.8556 31.8511 39.4501 32.31 40.252 32.8017C41.2213 33.3996 42.0331 33.8162 42.3809 35.5894C42.9286 38.3956 41.3833 39.5859 39.4044 41.0497Z" fill="#F0D5C7"/>
<path id="Vector_11" d="M39.4047 41.0478C39.0429 38.2818 39.0896 35.3715 40.2513 32.8008C41.2217 33.3976 42.0314 33.8143 42.3801 35.5874C42.9289 38.3936 41.3825 39.584 39.4047 41.0478Z" fill="#D38158"/>
<path id="Vector_12" d="M34.7753 45.01C32.7366 46.807 30.662 48.0321 28.6613 46.6507C27.0019 45.6557 27.93 43.7762 29.4949 41.543C31.564 42.0899 33.4549 43.3237 34.7753 45.01Z" fill="#D9926E"/>
<path id="Vector_13" d="M35.2343 25.9656C34.0617 26.6623 28.5085 29.6518 28.2227 27.0649C28.3227 26.6275 28.8835 26.4659 29.3626 26.3444C30.3331 26.1023 31.2307 25.7648 32.0805 25.3569C32.9478 24.9401 33.7672 24.4474 34.5605 23.8995C35.1126 23.5186 35.9221 23.0151 36.408 23.9223C36.8676 24.7762 35.8668 25.5652 35.2343 25.9656Z" fill="#D9926E"/>
<path id="Vector_14" d="M34.7746 45.0102C32.6653 46.8864 30.4755 48.1061 28.4434 46.4935C29.9626 45.4312 31.6992 44.6379 32.9783 43.249C33.6488 43.7547 34.2563 44.3482 34.7746 45.0102Z" fill="#D38158"/>
<path id="Vector_15" d="M35.2333 25.9656C33.8292 26.8554 32.2231 27.4967 30.543 27.946C31.3352 27.3871 32.9577 26.4691 32.0796 25.3569C32.9468 24.9401 33.7662 24.4474 34.5595 23.8995C35.1116 23.5186 35.9212 23.0151 36.407 23.9223C36.8666 24.7762 35.8658 25.5652 35.2333 25.9656Z" fill="#D38158"/>
<path id="Vector_16" d="M36.4016 26.9384C35.7452 26.8136 35.3485 28.4629 35.079 28.8341C35.003 28.9991 34.8117 29.0207 34.6617 28.9513C34.1433 28.8797 32.6959 27.966 32.3709 28.7582L31.6308 30.3109C31.4928 30.6387 31.0016 30.3305 30.7832 30.286C30.8571 30.4205 30.9354 30.5627 31.0135 30.7092C31.3396 30.8622 31.7624 30.8112 31.9275 30.452L32.6675 28.8992C32.7915 28.4283 34.5324 29.393 34.841 29.317C35.6615 29.4298 35.8267 26.9666 36.5211 27.3018L36.4004 26.9384H36.4016Z" fill="#DB9774"/>
<path id="Vector_17" d="M37.9084 30.4642C37.8455 30.3589 37.7879 30.257 37.727 30.1485C37.0043 29.9465 36.6261 31.6438 36.3381 32.0354C36.2773 32.1613 36.1339 32.2221 36.0023 32.1787L34.3668 31.6438C33.5649 31.3269 33.1997 33.087 32.8911 33.5124C32.7813 33.7587 32.4846 33.6415 32.2988 33.5721C32.327 33.6957 32.3499 33.8194 32.3694 33.9421C33.4997 34.4564 33.5626 31.7729 34.2646 31.9574C34.7863 32.0246 36.3077 32.9762 36.6359 32.1765L37.3781 30.6237C37.4846 30.3752 37.7857 30.4957 37.9704 30.564C37.9487 30.5315 37.9292 30.4978 37.9095 30.4631L37.9084 30.4642Z" fill="#DB9774"/>
</g>
<defs>
<clipPath id="clip0_397_1072">
<rect width="56" height="46.4906" fill="white" transform="translate(0 0.754883)"/>
</clipPath>
</defs>
</svg>
