<svg width="57" height="47" viewBox="0 0 57 47" fill="none" xmlns="http://www.w3.org/2000/svg">
<g id="clothing-shoes.svg" clip-path="url(#clip0_362_917)">
<path id="Vector" d="M56.5002 25.0711C56.2623 26.968 52.9183 29.1664 51.1177 28.9885C50.333 28.9115 45.5058 22.8781 41.8022 18.1068C42.5597 21.093 43.1357 24.9289 42.6956 28.1583C42.2837 31.1609 41.8197 34.0701 41.1524 35.5091C35.8133 38.6126 20.1656 38.9435 15.8024 35.5091C14.0223 31.3606 13.6104 22.5015 15.1754 18.0177C11.4631 22.801 6.57827 28.9103 5.78931 28.9896C4.26571 29.1393 1.63802 27.5898 0.721908 25.9609C-0.475663 23.0669 3.367 17.1182 7.60957 10.0192C12.9541 2.27782 18.4573 0.517719 23.58 0.000108575C23.8658 0.991925 25.2743 4.61628 28.4779 4.33849C31.5067 4.57397 32.9216 1.45745 33.3508 0.0782385L33.3279 -0.000976562C38.5552 0.561125 43.8508 2.20619 49.2975 10.017C52.6358 15.5968 55.82 20.2064 56.5002 25.0701V25.0711Z" fill="#D9926E"/>
<path id="Vector_2" d="M25.631 39.6631C22.3838 41.5447 18.6487 47.9568 14.6714 45.1094C11.7806 42.8339 19.7768 37.0784 18.5955 32.5565C18.1434 30.3754 16.3079 27.6864 15.2745 26.0783C16.873 25.0887 20.0963 23.0953 21.6981 22.1045C22.2186 24.4104 23.0576 27.5031 24.4518 29.5725C25.0822 30.4644 25.6766 30.9234 26.4786 31.415C27.4479 32.0129 28.2597 32.4296 28.6074 34.2027C29.1552 37.0088 27.6099 38.1993 25.631 39.6631Z" fill="#F0D5C7"/>
<path id="Vector_3" d="M25.6294 39.6622C25.2675 36.8961 25.3142 33.9858 26.4759 31.415C27.4463 32.0119 28.256 32.4286 28.6048 34.2017C29.1536 37.0079 27.6072 38.1982 25.6294 39.6622Z" fill="#D38158"/>
<path id="Vector_4" d="M21.0018 43.6243C18.9632 45.4212 16.8885 46.6464 14.888 45.2651C13.2284 44.2699 14.1566 42.3905 15.7214 40.1572C17.7905 40.7042 19.6814 41.9369 21.0018 43.6232V43.6243Z" fill="#D9926E"/>
<path id="Vector_5" d="M21.4607 24.5799C20.2881 25.2765 14.735 28.2661 14.4492 25.6791C14.5492 25.2417 15.1099 25.0801 15.5892 24.9586C16.5596 24.7166 17.4573 24.3791 18.3071 23.9711C19.1742 23.5545 19.9936 23.0618 20.7869 22.5138C21.339 22.1329 22.1486 21.6293 22.6344 22.5365C23.094 23.3906 22.0932 24.1794 21.4607 24.5799Z" fill="#D9926E"/>
<path id="Vector_6" d="M21.0011 43.6254C18.8918 45.5016 16.7021 46.7214 14.6699 45.1088C16.1891 44.0465 17.9257 43.2533 19.2048 41.8643C19.8753 42.3699 20.4827 42.9634 21.0011 43.6254Z" fill="#D38158"/>
<path id="Vector_7" d="M21.4598 24.5799C20.0558 25.4696 18.4495 26.111 16.7695 26.5603C17.5617 26.0014 19.1842 25.0834 18.3062 23.9711C19.1733 23.5545 19.9927 23.0618 20.786 22.5138C21.3381 22.1329 22.1476 21.6293 22.6335 22.5365C23.0931 23.3906 22.0923 24.1794 21.4598 24.5799Z" fill="#D38158"/>
<path id="Vector_8" d="M22.6262 25.5526C21.9698 25.4278 21.5732 27.0772 21.3036 27.4484C21.2276 27.6133 21.0363 27.635 20.8864 27.5656C20.368 27.4939 18.9205 26.5803 18.5956 27.3724L17.8555 28.9252C17.7174 29.253 17.2263 28.9447 17.0078 28.9003C17.0818 29.0349 17.16 29.177 17.2383 29.3234C17.5642 29.4765 17.987 29.4255 18.1521 29.0663L18.8923 27.5135C19.0161 27.0425 20.7571 28.0072 21.0657 27.9312C21.8862 28.0441 22.0513 25.5808 22.7457 25.9161L22.6251 25.5526H22.6262Z" fill="#DB9774"/>
<path id="Vector_9" d="M24.1331 29.0784C24.0701 28.9732 24.0125 28.8712 23.9516 28.7627C23.2289 28.5608 22.8508 30.258 22.5628 30.6497C22.502 30.7756 22.3585 30.8364 22.2269 30.793L20.5914 30.258C19.7895 29.9411 19.4243 31.7012 19.1157 32.1266C19.006 32.3729 18.7093 32.2557 18.5234 32.1863C18.5516 32.31 18.5745 32.4337 18.594 32.5563C19.7243 33.0707 19.7872 30.3871 20.4894 30.5716C21.0109 30.6389 22.5324 31.5905 22.8606 30.7908L23.6027 29.238C23.7093 28.9895 24.0103 29.1099 24.1951 29.1783C24.1733 29.1457 24.1538 29.1121 24.1342 29.0774L24.1331 29.0784Z" fill="#DB9774"/>
<path id="Vector_10" d="M39.9044 40.2949C36.6573 42.1766 32.9222 48.5886 28.9448 45.7412C26.054 43.4657 34.0502 37.7101 32.8689 33.1884C32.4168 31.0072 30.5814 28.3183 29.5479 26.7101C31.1464 25.7204 34.3697 23.727 35.9715 22.7363C36.492 25.0423 37.331 28.1348 38.7252 30.2042C39.3556 31.0962 39.9501 31.5552 40.752 32.0468C41.7213 32.6447 42.5331 33.0614 42.8809 34.8345C43.4286 37.6407 41.8833 38.831 39.9044 40.2949Z" fill="#F0D5C7"/>
<path id="Vector_11" d="M39.9047 40.2929C39.5429 37.5269 39.5896 34.6166 40.7513 32.0459C41.7217 32.6427 42.5314 33.0594 42.8801 34.8325C43.4289 37.6387 41.8825 38.8291 39.9047 40.2929Z" fill="#D38158"/>
<path id="Vector_12" d="M35.2753 44.2551C33.2366 46.0521 31.162 47.2772 29.1613 45.8958C27.5019 44.9008 28.43 43.0213 29.9949 40.7881C32.064 41.335 33.9549 42.5688 35.2753 44.2551Z" fill="#D9926E"/>
<path id="Vector_13" d="M35.7343 25.2107C34.5617 25.9074 29.0085 28.897 28.7227 26.31C28.8227 25.8726 29.3835 25.711 29.8626 25.5895C30.8331 25.3474 31.7307 25.0099 32.5805 24.602C33.4478 24.1852 34.2672 23.6925 35.0605 23.1446C35.6126 22.7637 36.4221 22.2602 36.908 23.1674C37.3676 24.0214 36.3668 24.8103 35.7343 25.2107Z" fill="#D9926E"/>
<path id="Vector_14" d="M35.2746 44.2553C33.1653 46.1315 30.9755 47.3512 28.9434 45.7387C30.4626 44.6763 32.1992 43.883 33.4783 42.4941C34.1488 42.9998 34.7563 43.5933 35.2746 44.2553Z" fill="#D38158"/>
<path id="Vector_15" d="M35.7333 25.2107C34.3292 26.1005 32.7231 26.7418 31.043 27.1911C31.8352 26.6322 33.4577 25.7143 32.5796 24.602C33.4468 24.1852 34.2662 23.6925 35.0595 23.1446C35.6116 22.7637 36.4212 22.2602 36.907 23.1674C37.3666 24.0214 36.3658 24.8103 35.7333 25.2107Z" fill="#D38158"/>
<path id="Vector_16" d="M36.9016 26.1835C36.2452 26.0587 35.8485 27.7081 35.579 28.0792C35.503 28.2442 35.3117 28.2658 35.1617 28.1964C34.6433 28.1248 33.1959 27.2111 32.8709 28.0033L32.1308 29.5561C31.9928 29.8838 31.5016 29.5756 31.2832 29.5311C31.3571 29.6656 31.4354 29.8078 31.5135 29.9543C31.8396 30.1073 32.2624 30.0564 32.4275 29.6971L33.1675 28.1443C33.2915 27.6734 35.0324 28.6381 35.341 28.5621C36.1615 28.675 36.3267 26.2117 37.0211 26.547L36.9004 26.1835H36.9016Z" fill="#DB9774"/>
<path id="Vector_17" d="M38.4084 29.7093C38.3455 29.604 38.2879 29.5021 38.227 29.3936C37.5043 29.1917 37.1261 30.8889 36.8381 31.2806C36.7773 31.4064 36.6339 31.4673 36.5023 31.4238L34.8668 30.8889C34.0649 30.572 33.6997 32.3321 33.3911 32.7575C33.2813 33.0038 32.9846 32.8866 32.7988 32.8172C32.827 32.9408 32.8499 33.0645 32.8694 33.1872C33.9997 33.7016 34.0626 31.018 34.7646 31.2025C35.2863 31.2697 36.8077 32.2214 37.1359 31.4216L37.8781 29.8688C37.9846 29.6203 38.2857 29.7408 38.4704 29.8091C38.4487 29.7766 38.4292 29.7429 38.4095 29.7082L38.4084 29.7093Z" fill="#DB9774"/>
</g>
<defs>
<clipPath id="clip0_362_917">
<rect width="56" height="46.4906" fill="white" transform="translate(0.5)"/>
</clipPath>
</defs>
</svg>
