<svg width="79" height="46" viewBox="0 0 79 46" fill="none" xmlns="http://www.w3.org/2000/svg">
<path d="M77.9231 31.5207C77.6837 31.2225 77.5185 30.8718 77.4411 30.4973C76.9723 29.1042 76.2659 26.9848 72.5024 24.8126C68.739 22.6403 64.4012 22.2244 59.8917 22.1716C59.817 22.1647 59.7418 22.1647 59.6672 22.1716H59.4823H56.432C54.7747 22.1716 53.1835 22.1716 51.6848 22.0395C51.7376 21.6758 51.6519 21.3055 51.4446 21.0019C51.2373 20.6984 50.9236 20.4839 50.5655 20.4008C50.2075 20.3177 49.8313 20.3722 49.5116 20.5534C49.1918 20.7347 48.9518 21.0294 48.8391 21.3793L48.7599 21.6698C47.7706 21.4755 46.8054 21.1744 45.8811 20.7718L46.1453 20.4153C46.2597 20.2605 46.3426 20.0847 46.3891 19.8979C46.4356 19.7112 46.4449 19.517 46.4163 19.3267C46.3878 19.1363 46.3221 18.9534 46.2229 18.7884C46.1237 18.6235 45.993 18.4797 45.8382 18.3652C45.6835 18.2508 45.5077 18.1679 45.3209 18.1214C45.1341 18.0749 44.94 18.0656 44.7496 18.0941C44.5592 18.1226 44.3763 18.1884 44.2114 18.2876C44.0464 18.3868 43.9026 18.5175 43.7882 18.6722L43.326 19.2995C42.6023 18.8159 41.9038 18.2959 41.233 17.7413L41.5037 17.5102C41.6617 17.3895 41.7935 17.2379 41.891 17.0646C41.9886 16.8913 42.0499 16.7 42.0711 16.5023C42.0924 16.3046 42.0732 16.1046 42.0148 15.9146C41.9563 15.7245 41.8598 15.5484 41.7311 15.3968C41.6024 15.2452 41.4442 15.1214 41.2661 15.0329C41.0881 14.9444 40.8939 14.8931 40.6953 14.882C40.4968 14.871 40.2981 14.9004 40.1113 14.9686C39.9245 15.0367 39.7535 15.1422 39.6088 15.2785L39.0344 15.7605C38.4996 15.2323 37.9714 14.6711 37.4498 14.0835L37.8195 13.8458C38.1358 13.6316 38.356 13.3024 38.4332 12.9283C38.5104 12.5542 38.4385 12.1647 38.2328 11.8428C38.0271 11.5209 37.7039 11.2921 37.3319 11.205C36.96 11.1178 36.5687 11.1794 36.2415 11.3765L35.5813 11.7924C35.1323 11.1982 34.6899 10.5842 34.2608 9.93712L34.921 9.59379C35.2512 9.40462 35.4948 9.09449 35.6004 8.72894C35.7061 8.3634 35.6654 7.97111 35.487 7.635C35.3087 7.29888 35.0066 7.0453 34.6447 6.92784C34.2828 6.81039 33.8894 6.83828 33.5477 7.00561L32.6828 7.46119C32.3262 6.86036 31.9763 6.24633 31.6264 5.61249L31.9829 5.48044C32.3462 5.3421 32.6397 5.06509 32.7989 4.71034C32.958 4.35559 32.9697 3.95217 32.8313 3.58882C32.693 3.22547 32.416 2.93195 32.0612 2.77284C31.7065 2.61373 31.303 2.60206 30.9397 2.7404L30.154 3.04411C29.5617 2.1023 28.7378 1.32802 27.7611 0.795166C26.7844 0.262313 25.6874 -0.0113281 24.5749 0.000359272C22.853 0.0909102 21.1526 0.424332 19.524 0.990735C18.0242 1.48881 16.4744 1.82091 14.9022 1.98111C14.4202 1.98111 13.892 2.02733 13.2846 2.02733C12.0565 2.02733 10.7294 1.9679 9.44855 1.90848C8.16766 1.84906 6.99241 1.78964 5.8964 1.78964C4.8244 1.75306 3.75224 1.85739 2.7074 2.09995C0.72665 2.65456 0.535171 4.00147 0.535171 4.54948C0.535171 5.51345 0.535171 6.76132 0.535171 8.34592C0.535171 11.0662 0.535171 14.79 0.535171 19.7088V44.5342C0.534297 44.727 0.571613 44.918 0.644964 45.0962C0.718316 45.2744 0.826254 45.4363 0.962537 45.5726C1.09882 45.7089 1.26076 45.8168 1.43899 45.8902C1.61721 45.9635 1.8082 46.0009 2.00093 46H59.9907C63.7039 45.9174 67.3932 45.3831 70.9773 44.4088C76.015 43.0091 78.4645 41.1802 78.4645 38.8231V32.6233C78.4599 32.4112 78.409 32.2027 78.3155 32.0123C78.222 31.8218 78.0881 31.6541 77.9231 31.5207ZM74.6615 31.4349C74.7678 31.7624 74.8912 32.0842 75.0312 32.3988C73.3313 33.3871 71.4898 34.1086 69.5709 34.538C66.8132 35.2771 63.9846 35.7197 61.1329 35.8585V25.1229C64.8303 25.2351 68.1646 25.6841 71.0367 27.3479C73.9088 29.0117 74.2785 30.2794 74.6615 31.4349ZM27.2753 4.10711L25.0371 4.95884C24.7183 5.08237 24.4527 5.31346 24.2863 5.6121C24.1199 5.91075 24.0631 6.25817 24.1258 6.59426C24.1885 6.93035 24.3666 7.23395 24.6295 7.45255C24.8924 7.67114 25.2234 7.79098 25.5653 7.79131C25.743 7.78949 25.9193 7.75826 26.0869 7.69888L28.8665 6.63587C29.2693 7.38196 29.6786 8.10163 30.0946 8.80149L27.9686 9.90411C27.6818 10.0565 27.4538 10.2998 27.3203 10.5958C27.1868 10.8917 27.1553 11.2237 27.2309 11.5395C27.3064 11.8553 27.4847 12.1371 27.7377 12.3406C27.9907 12.5441 28.3042 12.6578 28.6288 12.664C28.8597 12.6618 29.0864 12.6028 29.2891 12.4923L31.6131 11.2642C32.0885 11.9839 32.5771 12.664 33.0723 13.3308L30.8803 14.7371C30.6131 14.9081 30.4086 15.161 30.2975 15.4581C30.1863 15.7551 30.1745 16.0801 30.2638 16.3845C30.353 16.6888 30.5386 16.9559 30.7926 17.1458C31.0467 17.3357 31.3554 17.4381 31.6726 17.4376C31.952 17.4363 32.225 17.3537 32.4583 17.1999L34.9144 15.6285C35.5152 16.3217 36.1227 16.982 36.7499 17.6092L34.7692 19.2665C34.5413 19.4606 34.3783 19.7198 34.3021 20.0093C34.2259 20.2988 34.2402 20.6046 34.343 20.8857C34.4458 21.1669 34.6323 21.4098 34.8772 21.5818C35.1222 21.7539 35.414 21.8468 35.7133 21.848C36.0615 21.8464 36.3979 21.7226 36.6641 21.4981L38.8891 19.6098C39.7334 20.3168 40.615 20.978 41.5301 21.5905L40.2096 23.3864C40.035 23.6066 39.9277 23.8724 39.9006 24.1521C39.8734 24.4318 39.9276 24.7133 40.0566 24.9629C40.1856 25.2125 40.3839 25.4196 40.6277 25.5593C40.8715 25.6989 41.1505 25.7652 41.4311 25.7501C41.66 25.7512 41.8859 25.6979 42.0903 25.5946C42.2946 25.4913 42.4715 25.3409 42.6063 25.1559L44.1051 23.1355C45.3193 23.7389 46.6065 24.1828 47.9346 24.456L47.3205 26.5754C47.266 26.7601 47.2486 26.9537 47.2692 27.1452C47.2899 27.3366 47.3483 27.5221 47.4409 27.6909C47.5336 27.8596 47.6588 28.0084 47.8092 28.1286C47.9597 28.2488 48.1324 28.338 48.3175 28.3911C48.4503 28.4307 48.5882 28.4507 48.7268 28.4505C49.044 28.4503 49.3525 28.3472 49.6061 28.1567C49.8596 27.9662 50.0446 27.6987 50.1332 27.3941L50.8595 24.8918C51.632 24.9644 52.4176 25.0106 53.2231 25.0436L54.2267 30.3719C43.0025 29.7842 35.1653 23.6571 30.5105 18.4874C25.6313 13.0601 22.6271 6.89997 21.6698 3.41385C22.6122 3.12078 23.5888 2.95209 24.5749 2.91206C25.0859 2.89542 25.5941 2.99423 26.0616 3.20114C26.5291 3.40804 26.944 3.71772 27.2753 4.10711ZM3.43368 8.37893C3.43368 6.99241 3.43368 5.86338 3.43368 4.95224C4.23159 4.78101 5.04808 4.71223 5.86339 4.74756C6.88678 4.74756 8.04883 4.80038 9.2769 4.8598C10.505 4.91922 11.9575 4.98525 13.2384 4.98525C13.8986 4.98525 14.4995 4.98525 15.0475 4.93243C16.332 4.84084 17.6039 4.61963 18.8439 4.27218C19.9003 8.0158 22.9309 14.5127 28.3119 20.5011C33.6929 26.4896 42.6987 33.409 55.983 33.409C56.1979 33.4077 56.41 33.3593 56.6042 33.2673C56.7985 33.1752 56.9702 33.0418 57.1074 32.8763C57.2446 32.7108 57.3439 32.5173 57.3983 32.3093C57.4527 32.1014 57.4609 31.884 57.4223 31.6726L56.2141 25.0899H58.1948V35.8321H51.414C51.2871 35.7975 51.1561 35.7797 51.0245 35.7793C50.8973 35.7802 50.7707 35.798 50.6482 35.8321C37.4432 35.8321 15.4238 35.7793 3.42046 35.8321V19.7352C3.41386 14.823 3.42708 11.0992 3.43368 8.37893ZM49.5654 39.4107H3.42046V38.6844C15.0937 38.6844 36.2679 38.6844 49.5654 38.6844V39.4107ZM3.42046 42.3422H49.5654V43.0751H3.42046V42.3422ZM70.1453 41.5961C66.8179 42.5023 63.3923 42.999 59.9445 43.0751H52.4903V38.7306H54.3389C57.5544 38.7306 59.8718 38.7768 60.8226 38.7768C63.9984 38.7768 71.2876 37.6676 75.4934 35.5086V38.8495C75.4934 39.1202 74.5822 40.3813 70.1453 41.5961Z" fill="#DC366E"/>
<path d="M14.3074 26.6158C15.7125 26.6158 17.0861 26.1992 18.2544 25.4185C19.4227 24.6379 20.3332 23.5284 20.8709 22.2302C21.4086 20.9321 21.5493 19.5036 21.2752 18.1255C21.0011 16.7474 20.3245 15.4816 19.3309 14.488C18.3374 13.4945 17.0715 12.8179 15.6934 12.5437C14.3153 12.2696 12.8869 12.4103 11.5887 12.948C10.2906 13.4857 9.18104 14.3963 8.40041 15.5646C7.61978 16.7329 7.20312 18.1064 7.20312 19.5115C7.20487 21.3952 7.95392 23.2011 9.28585 24.5331C10.6178 25.865 12.4238 26.6141 14.3074 26.6158ZM14.3074 15.3387C15.1327 15.3387 15.9395 15.5835 16.6257 16.042C17.3119 16.5005 17.8467 17.1522 18.1626 17.9147C18.4784 18.6771 18.561 19.5162 18.4 20.3256C18.239 21.135 17.8416 21.8785 17.258 22.4621C16.6744 23.0457 15.9309 23.4431 15.1215 23.6041C14.3121 23.7651 13.473 23.6825 12.7106 23.3667C11.9481 23.0508 11.2964 22.516 10.8379 21.8298C10.3794 21.1436 10.1346 20.3368 10.1346 19.5115C10.1364 18.4054 10.5766 17.345 11.3587 16.5628C12.1409 15.7807 13.2013 15.3405 14.3074 15.3387Z" fill="#DC366E"/>
<path d="M24.1452 33.3563C24.433 33.3576 24.7148 33.2733 24.9547 33.1142C25.1945 32.9551 25.3817 32.7283 25.4925 32.4626C25.6032 32.1969 25.6326 31.9043 25.5767 31.622C25.5209 31.3396 25.3824 31.0802 25.1789 30.8766C24.9753 30.6731 24.7159 30.5346 24.4335 30.4788C24.1512 30.4229 23.8585 30.4522 23.5929 30.563C23.3272 30.6738 23.1004 30.861 22.9413 31.1008C22.7822 31.3407 22.6979 31.6225 22.6992 31.9103C22.6992 32.2938 22.8516 32.6616 23.1228 32.9328C23.3939 33.2039 23.7617 33.3563 24.1452 33.3563Z" fill="#DC366E"/>
<path d="M30.1491 33.3563C30.4369 33.3576 30.7187 33.2733 30.9585 33.1142C31.1984 32.9551 31.3857 32.7283 31.4964 32.4626C31.6072 32.1969 31.6365 31.9043 31.5806 31.622C31.5248 31.3396 31.3863 31.0802 31.1828 30.8766C30.9793 30.6731 30.7198 30.5346 30.4374 30.4788C30.1551 30.4229 29.8625 30.4522 29.5968 30.563C29.3311 30.6738 29.1043 30.861 28.9452 31.1008C28.7861 31.3407 28.7018 31.6225 28.7031 31.9103C28.7031 32.2938 28.8555 32.6616 29.1267 32.9328C29.3978 33.2039 29.7656 33.3563 30.1491 33.3563Z" fill="#DC366E"/>
</svg>
