<svg width="35" height="46" viewBox="0 0 35 46" fill="none" xmlns="http://www.w3.org/2000/svg">
<path d="M14.1731 5.85398C15.7896 5.85398 17.1001 4.54352 17.1001 2.92699C17.1001 1.31046 15.7896 0 14.1731 0C12.5566 0 11.2461 1.31046 11.2461 2.92699C11.2461 4.54352 12.5566 5.85398 14.1731 5.85398Z" fill="#DC366E"/>
<path d="M34.662 29.2702V40.9781C34.662 41.7544 34.3536 42.4989 33.8047 43.0478C33.2558 43.5967 32.5113 43.9051 31.735 43.9051C30.9587 43.9051 30.2142 43.5967 29.6653 43.0478C29.1164 42.4989 28.808 41.7544 28.808 40.9781V32.1972H14.1731C13.3968 32.1972 12.6523 31.8888 12.1034 31.3399C11.5545 30.791 11.2461 30.0465 11.2461 29.2702C11.2461 29.2149 11.2461 29.1596 11.2461 29.1076C11.2461 29.0555 11.2461 29.0002 11.2461 28.945V11.7082C11.2461 10.932 11.5545 10.1875 12.1034 9.63854C12.6523 9.08963 13.3968 8.78125 14.1731 8.78125C14.9491 8.78193 15.6931 9.09076 16.2415 9.63983C16.7906 10.1882 17.0994 10.9322 17.1001 11.7082V14.6352H25.881C26.6573 14.6352 27.4018 14.9436 27.9507 15.4925C28.4996 16.0414 28.808 16.7859 28.808 17.5622C28.8073 18.3382 28.4985 19.0822 27.9494 19.6306C27.4011 20.1797 26.6571 20.4885 25.881 20.4892H17.1001V26.3432H31.735C32.511 26.3439 33.255 26.6527 33.8034 27.2018C34.3525 27.7502 34.6613 28.4942 34.662 29.2702Z" fill="#DC366E"/>
<path d="M24.5631 39.3158C22.0944 41.1602 19.0294 42.0235 15.961 41.7387C13.0473 41.4682 10.3198 40.1876 8.25061 38.1184C6.18143 36.0492 4.90077 33.3217 4.6303 30.408C4.34547 27.3396 5.20877 24.2746 7.0532 21.8059C7.36175 21.3967 7.51166 20.8896 7.47519 20.3784C7.43872 19.8672 7.21834 19.3865 6.85482 19.0252C6.63811 18.81 6.37744 18.6441 6.09066 18.5389C5.80388 18.4337 5.49776 18.3917 5.19325 18.4158C4.88873 18.4399 4.59302 18.5295 4.32634 18.6784C4.05966 18.8274 3.82832 19.0322 3.64815 19.2789C1.27373 22.4628 0.113569 26.3896 0.376426 30.3527C0.65306 34.4017 2.38656 38.2136 5.25633 41.0834C8.1261 43.9532 11.938 45.6867 15.987 45.9633C19.9501 46.2262 23.8769 45.066 27.0608 42.6916C27.3047 42.5135 27.5078 42.2854 27.6565 42.0224C27.8051 41.7595 27.8958 41.4679 27.9226 41.167C27.9494 40.8662 27.9116 40.5631 27.8118 40.278C27.712 39.993 27.5524 39.7326 27.3437 39.5142C26.9825 39.1507 26.5018 38.9303 25.9906 38.8938C25.4794 38.8573 24.9723 39.0072 24.5631 39.3158Z" fill="#DC366E"/>
</svg>
